<?xml version="1.0" standalone="no"?>
<!DOCTYPE svg PUBLIC "-//W3C//DTD SVG 1.1//EN" "http://www.w3.org/Graphics/SVG/1.1/DTD/svg11.dtd" >
<svg xmlns="http://www.w3.org/2000/svg" xmlns:xlink="http://www.w3.org/1999/xlink" version="1.1">
<metadata></metadata>
<defs>
<font id="korinnabold" horiz-adv-x="1170" >
<font-face units-per-em="2048" ascent="1638" descent="-410" />
<missing-glyph horiz-adv-x="631" />
<glyph unicode="&#xd;" horiz-adv-x="631" />
<glyph unicode=" "  horiz-adv-x="631" />
<glyph unicode="&#x09;" horiz-adv-x="631" />
<glyph unicode="&#xa0;" horiz-adv-x="631" />
<glyph unicode="!" horiz-adv-x="536" d="M67 160q0 81 53.5 141.5t148.5 60.5t151 -63q51 -58 51 -139q0 -83 -49 -139q-56 -63 -153 -63t-149.5 59t-52.5 143zM88 1440q0 83 32 128q42 62 145 62q84 0 123 -57.5t39 -199.5q0 -139 -37 -478q-25 -207 -47 -413l-5 -57h-136l-7 57q-21 202 -33 307 q-18 137 -35 276q-23 179 -36 308q-2 21 -2.5 37.5t-0.5 29.5z" />
<glyph unicode="&#x22;" horiz-adv-x="769" d="M65 1463q-9 47 29 96.5t91 49.5q51 0 88.5 -40t37.5 -89q0 -12 -2 -19l-80 -429h-83zM464 1463q-9 47 28 96.5t92 49.5q51 0 88.5 -40t37.5 -89q0 -12 -2 -19l-80 -429h-83z" />
<glyph unicode="#" horiz-adv-x="1402" d="M70 552l58 148h248l79 223h-242l54 144h248l95 269h165l-96 -269h256l97 269h174l-102 -269h251l-54 -144h-244l-87 -223h254l-60 -148h-246l-102 -280h-171l100 280h-253l-107 -280h-167l102 280h-250zM543 700h257l81 223h-259z" />
<glyph unicode="$" horiz-adv-x="1105" d="M65 1044q0 135 123 236q109 90 248 103l32 2v227h167v-227q67 0 159 -11.5t159 -26.5v-261h-109l-16 30q-28 56 -93 81t-146 25q-97 0 -164.5 -31t-67.5 -96q0 -69 121 -107q139 -32 172 -40l58 -16q128 -37 217 -104q114 -84 123 -195q2 -11 1 -34q0 -142 -100 -239.5 t-263 -116.5l-44 -7v-236h-173v234q-62 0 -83.5 1.5t-119 22t-194.5 58.5l2 259l121 -2l32 -44q49 -69 128 -95q60 -19 167 -19q104 0 166.5 36t62.5 94q0 81 -167 130q-120 30 -173 44l-40 11q-137 37 -215 107q-91 84 -91 207z" />
<glyph unicode="%" horiz-adv-x="1863" d="M62 1211q0 18 0.5 32t2.5 24q21 153 143 250t279 97q81 0 170.5 -34.5t161.5 -106.5l20 -19q58 -54 163 -55q72 0 169.5 46.5t153.5 105.5l48 45h178l-1061 -1596h-179l891 1341q-32 -26 -82.5 -47t-84.5 -21q-14 -2 -38 -2q-42 0 -104 21l5 -49q2 -12 2 -37 q0 -148 -107 -264q-120 -130 -308 -130t-305.5 116t-117.5 283zM306 1213q0 -141 47 -195q40 -47 122 -48q90 0 139 81q42 69 42 173q0 100 -35 154q-46 72 -148 72q-86 0 -130 -77q-37 -65 -37 -160zM955 376q0 181 137 301q127 109 291 109q165 0 287.5 -120.5 t122.5 -306.5q0 -162 -121 -272t-292 -110q-172 0 -298.5 116t-126.5 283zM1201 362q0 -95 40 -153q47 -69 142 -68q84 0 129 75q37 65 37 160q0 100 -35 164q-44 79 -131 79q-98 0 -145 -83q-37 -65 -37 -174z" />
<glyph unicode="&#x26;" horiz-adv-x="1754" d="M65 461q0 132 77.5 241.5t212.5 158.5l44 18l-44 21q-100 53 -153.5 134.5t-53.5 180.5q0 195 191 311q171 104 401 104q114 0 301 -34q135 -25 207 -45l27 -9v-350h-141l-11 24q-35 79 -123 145q-97 72 -197 72q-149 0 -230 -61.5t-81 -169.5q0 -102 92 -170 q81 -60 181 -60h158v-188h-44q-197 0 -308 -65q-132 -77 -132 -237q0 -139 129 -225q116 -77 276 -78q178 0 272 79q81 67 81 159q0 54 -24.5 85.5t-107.5 45.5l-30 6v149h656v-149h-30q-32 0 -45 -3t-35 -18.5t-34 -49.5q-11 -42 -14 -61q-47 -223 -266 -346 q-195 -111 -462 -111q-306 0 -515 128q-225 139 -225 368z" />
<glyph unicode="'" horiz-adv-x="383" d="M76 1464q-9 47 28.5 96.5t92.5 49.5q47 0 86.5 -41t39.5 -89q1 -12 -1 -17l-83 -429h-83z" />
<glyph unicode="(" horiz-adv-x="815" d="M74 628q0 207 91 436q76 188 202 370q98 141 203 248l51 53l133 -114l-31 -41q-163 -218 -228.5 -424.5t-65.5 -489.5q0 -278 71 -510t235 -446l12 -18l-126 -110l-44 44q-197 195 -331 430q-172 304 -172 572z" />
<glyph unicode=")" horiz-adv-x="808" d="M65 1621l134 114l51 -53q100 -104 198 -246q128 -186 202 -371q94 -233 94 -437q0 -188 -81 -389q-70 -172 -194 -346q-102 -144 -226 -267l-44 -44l-127 110l12 18q162 213 234 446.5t72 509.5q0 288 -63 489.5t-232 424.5z" />
<glyph unicode="*" horiz-adv-x="1026" d="M60 1468q0 28 15.5 57t43 43t62.5 14q42 0 78 -27t93 -112q46 -67 72 -67q7 0 21 7q21 12 21 39q0 19 -31.5 98.5t-31.5 135.5q0 47 35 80.5t84 33.5q47 0 77 -33.5t30 -84.5q0 -46 -24 -98q-56 -123 -57 -125q0 -26 32 -38q14 -5 23 -6q28 0 60 42q90 123 105 132 q40 25 88 25q67 0 95 -51q14 -25 14 -51q0 -42 -30.5 -78t-76.5 -49q-16 -4 -49.5 -5.5t-50.5 -1.5q-65 0 -95 -7.5t-34 -43.5q-7 -53 114.5 -66t148.5 -24.5t46.5 -41t19.5 -63.5q0 -32 -16.5 -55.5t-41.5 -38.5t-56 -15q-30 0 -62 21q-12 9 -125 139q-39 44 -61 44 q-11 0 -16 -3q-25 -12 -24 -43q0 -26 21 -75q54 -127 59 -157q9 -51 -28.5 -88.5t-92.5 -37.5q-107 0 -107 112q0 44 37.5 128.5t37.5 110.5q0 33 -26 48q-11 5 -19 5q-25 0 -106 -111q-49 -67 -93 -93q-23 -14 -56 -14q-58 0 -90 46q-19 26 -19 65q0 79 74 104 q146 25 193.5 36t47.5 39q0 63 -112 69.5t-145.5 22t-52.5 44.5t-19 63z" />
<glyph unicode="+" horiz-adv-x="1191" d="M53 483v120h478v485h118v-485h485v-121h-482v-491h-119v492h-480z" />
<glyph unicode="," horiz-adv-x="559" d="M70 158q0 70 46 130q62 81 172 81q77 0 141.5 -78t64.5 -173q0 -134 -100 -285q-72 -109 -164 -186l-35 -30l-95 79l30 26q25 21 41 41q2 2 56 75q21 30 40.5 69.5t19.5 59.5q0 9 -6 12q-16 5 -28 5q-19 -2 -30 -2q-7 0 -21 4q-53 18 -92.5 65t-39.5 107z" />
<glyph unicode="-" horiz-adv-x="562" d="M62 482v248h439v-248h-439z" />
<glyph unicode="." horiz-adv-x="550" d="M67 179q0 86 53.5 148t153.5 62q98 0 157 -66q53 -60 52 -144q0 -86 -51 -144q-58 -65 -158 -65q-97 0 -152 62.5t-55 146.5z" />
<glyph unicode="/" horiz-adv-x="1406" d="M44 -322l1125 2231h183l-1123 -2231h-185z" />
<glyph unicode="0" horiz-adv-x="1488" d="M79 821q0 322 160 545q178 248 484 248q330 0 525 -262q178 -237 178 -582q0 -329 -180 -557q-195 -248 -515 -248q-308 0 -488 271q-163 244 -164 585zM406 810q0 -267 62 -432q83 -222 267 -222q209 0 290 203q54 137 54 406q0 366 -102 520q-86 132 -247 132 q-199 0 -275 -204q-49 -134 -49 -403z" />
<glyph unicode="1" horiz-adv-x="875" d="M65 1259v124q33 7 88.5 28.5t117.5 51.5q49 23 105 68q21 18 63 60h204l2 -193v-1148q0 -44 6 -76t23 -51t41.5 -26t65.5 -7h29h11v-90h-675v90h10q65 0 104 7t56.5 31.5t22 51.5t4.5 70v1095q-19 -11 -52 -25t-73 -27t-75.5 -21t-77.5 -13z" />
<glyph unicode="2" horiz-adv-x="1332" d="M69 0v77q0 32 16.5 117.5t51.5 148.5q69 127 246 246q125 79 252 160q97 70 193 141q84 83 84 228q0 121 -86 210t-228 101q-11 2 -20 2h-21q-113 0 -198 -59t-122 -164l-10 -34h-134v313l49 30q79 47 208.5 77t270.5 30q299 0 463 -136t164 -375q0 -181 -148 -334 q-105 -109 -288 -206q-91 -44 -183 -88q-134 -72 -190 -102q-98 -53 -119 -111l-12 -33h634q19 0 35 -1t29 -1q28 0 50 6.5t43 23.5q49 42 56 104h118v-371h-1204z" />
<glyph unicode="3" horiz-adv-x="1260" d="M70 51v304h116l11 -28q25 -67 116 -110t193 -43q116 0 227 72q146 95 146 260q-16 174 -139 250q-86 53 -207 53h-152v186h60q172 0 264 42q121 56 121 188q0 109 -88 160q-72 42 -184 42q-102 0 -176 -35q-90 -42 -123 -132l-9 -22h-119v281l33 14q132 56 211 73.5 t153 17.5q272 0 422 -73q197 -97 197 -322q0 -114 -57.5 -192.5t-157.5 -113.5l-38 -12l47 -18q125 -44 202 -169q69 -110 69 -230q0 -236 -202 -380q-188 -134 -466 -133q-257 0 -436 59z" />
<glyph unicode="4" horiz-adv-x="1459" d="M69 374v204l727 1002h354l-2 -1002h251v-197h-246l2 -135q0 -16 -1 -31t-1 -30q0 -56 13.5 -69.5t33.5 -19.5t48 -6h11v-90h-542v90h11q30 0 50 5t37.5 20t25.5 51t8 84v124h-780zM311 577l538 -2v743z" />
<glyph unicode="5" horiz-adv-x="1299" d="M62 37v313h114l10 -30q25 -67 117.5 -111t193.5 -44q214 0 319 150q76 109 75 256q0 134 -75 225q-81 98 -215 99q-100 0 -168.5 -32.5t-124.5 -110.5l-18 -21l-174 50l49 796h1029l-88 -234h-733l-20 -322l58 30q70 37 129 51t142 14q220 0 384.5 -152t164.5 -368 q0 -281 -203.5 -456t-515.5 -175q-142 0 -262 24q-120 32 -155 41z" />
<glyph unicode="6" horiz-adv-x="1383" d="M63 744q0 355 199 599q216 265 577 266q83 0 173 -11t138 -26l33 -11v-299h-114l-9 34q-12 51 -79 81.5t-153 30.5q-193 0 -312 -136t-119 -382v-39l35 39q35 35 134 77q120 51 215 51q200 0 353 -120q177 -139 177 -369q0 -236 -149 -397q-162 -176 -432 -176 q-260 0 -419 120q-135 102 -197 295q-51 160 -51 373zM401 475q0 -135 72 -220q79 -93 227 -93q134 0 217 92t83 221q1 25 -1 37q-14 123 -81 196q-74 83 -197 83q-139 0 -225 -77q-95 -84 -95 -239z" />
<glyph unicode="7" horiz-adv-x="1227" d="M69 1206v371h1093v-41v-21q0 -51 -5.5 -76.5t-12.5 -44t-160 -348.5q-109 -236 -158 -383q-74 -218 -93 -426q-12 -142 -12 -212v-25h-355v19q0 83 17 206q26 178 78 306q60 146 142 295q56 100 146 241q102 160 130 211l26 49h-601q-67 0 -102 -44q-12 -16 -19 -39.5 t-5 -37.5h-109z" />
<glyph unicode="8" horiz-adv-x="1344" d="M67 461q0 149 79 258t223 167q-111 49 -172.5 133.5t-61.5 200.5q0 183 178 295q158 100 371 101q222 0 367 -102q155 -109 155 -292q0 -113 -60.5 -193t-173.5 -127q156 -62 227 -146q84 -102 84 -274q0 -244 -171.5 -384t-455.5 -140q-255 0 -422 139.5t-167 363.5z M401 466q0 -134 63 -213q74 -91 223 -91q135 0 206 96q60 83 60 218q0 134 -65 217q-74 95 -215 95q-149 0 -216 -99q-56 -83 -56 -223zM417 1216q0 -95 51 -152q63 -70 189 -71q128 0 189 59t61 163q0 93 -53 146q-60 62 -182 61q-125 0 -194 -63q-62 -56 -61 -143z" />
<glyph unicode="9" horiz-adv-x="1336" d="M70 1081q0 230 160 379.5t417 149.5q315 0 480 -241q144 -211 144 -541q0 -357 -195 -601q-211 -265 -557 -266q-195 0 -341 48l-36 10v259h102l9 -34q9 -37 80 -68.5t152 -31.5q216 0 342 149.5t126 437.5v44l-37 -42q-67 -76 -181 -112q-88 -28 -179 -29 q-188 0 -326 118q-160 137 -160 371zM387 1116q0 -149 93 -232q79 -70 186 -70q100 0 176 63q97 81 97 229q0 144 -99 230q-83 72 -172 72q-127 0 -204 -84.5t-77 -207.5z" />
<glyph unicode=":" horiz-adv-x="548" d="M67 179q0 86 53.5 148t153.5 62q98 0 157 -66q53 -60 52 -144q0 -86 -51 -144q-58 -65 -158 -65q-97 0 -152 62.5t-55 146.5zM67 879q0 86 53.5 147.5t153.5 61.5q98 0 157 -65q53 -60 52 -144q0 -84 -51 -142q-58 -65 -158 -65q-97 0 -152 62t-55 145z" />
<glyph unicode=";" horiz-adv-x="555" d="M67 879q0 86 53.5 147.5t153.5 61.5q98 0 157 -65q53 -60 52 -144q0 -84 -51 -142q-58 -65 -158 -65q-97 0 -152 62t-55 145zM70 153q0 70 46 130q62 81 172 81q77 0 141.5 -78t64.5 -173q0 -134 -100 -285q-72 -109 -164 -187l-35 -30l-95 80l30 26q25 21 41 40 q2 2 56 76q21 30 40.5 69.5t19.5 58.5q0 9 -6 13q-16 5 -28 5q-19 -2 -30 -2q-7 0 -21 4q-53 18 -92.5 65t-39.5 107z" />
<glyph unicode="&#x3c;" horiz-adv-x="1202" d="M65 475v177l1072 492v-188l-880 -395l880 -396v-184z" />
<glyph unicode="=" horiz-adv-x="1067" d="M72 350v126h934v-126h-934zM72 610v123h934v-123h-934z" />
<glyph unicode="&#x3e;" horiz-adv-x="1204" d="M67 -19v184l881 396l-881 395v188l1072 -492v-177z" />
<glyph unicode="?" horiz-adv-x="1234" d="M63 1187v360l37 9q104 30 201.5 44t194.5 14q302 0 494 -172q183 -166 183 -407q0 -218 -151.5 -353t-371.5 -135l-79 -7v-118h-204v402h123q141 0 236 50q135 70 135 226q0 137 -101 217.5t-266 80.5q-104 0 -179.5 -46t-101.5 -123l-14 -42h-136zM278 158q0 83 51 141 q58 65 153 65t149 -62q49 -54 49 -137t-51 -140q-58 -65 -153 -65t-146.5 58t-51.5 140z" />
<glyph unicode="@" horiz-adv-x="1597" d="M105 742q0 309 218 529t528 220q281 0 489 -164q219 -174 219 -434q0 -230 -146 -410.5t-346 -180.5q-84 0 -127 85q-12 28 -24 84l-62 -70q-39 -46 -87 -68t-110 -22q-121 0 -198.5 96t-77.5 226q0 190 160 332q144 128 298 128q58 0 101 -22.5t59 -70.5l19 -58l42 127 l176 3l-160 -589q-7 -32 -7 -56q0 -28 9.5 -47.5t29.5 -19.5q125 0 233 166.5t108 350.5q0 237 -187 380q-169 128 -411 128q-262 0 -448.5 -186t-186.5 -450q0 -274 189 -468.5t462 -194.5q199 0 339 76q102 54 165 142q21 39 44 77h136q-30 -51 -60 -101 q-88 -121 -213 -194q-179 -104 -415 -104q-315 0 -536.5 221.5t-221.5 538.5zM566 541q0 -72 30 -116q37 -54 109 -54q102 0 192 185q82 169 82 304q0 83 -30.5 132t-90.5 49q-100 0 -196 -169t-96 -331z" />
<glyph unicode="A" horiz-adv-x="1719" d="M40 0v90h13q18 0 44 17q7 4 26 36.5t30 60.5l515 1373h325l529 -1327q28 -74 30 -78q7 -14 34 -51q17 -31 56 -31h2h10v-90h-525v90h12q28 0 51.5 17.5t23.5 47.5q0 25 -10.5 52t-13.5 37l-135 327h-530l-137 -374q-11 -28 -10 -49q0 -14 7 -24.5t29.5 -22t47.5 -11.5h11 v-90h-435zM598 779h385l-208 499z" />
<glyph unicode="B" horiz-adv-x="1539" d="M35 1489v88h867q165 0 286 -83q144 -98 145 -272q0 -134 -82 -232.5t-205 -124.5q153 0 278 -123.5t125 -286.5q0 -204 -148 -332q-141 -123 -345 -123h-910v90h12q18 0 29 7t31 24q12 11 17.5 50.5t5.5 78.5v1123q0 32 -4.5 49.5t-20.5 36.5q-28 30 -70 30h-11zM454 185 h362q105 0 197 63q116 81 116 220q0 158 -130 237q-100 61 -237 61h-4h-304v-581zM455 960h248q141 0 209 33q116 56 116 209q0 90 -61 134q-72 51 -276 51q-33 0 -65 -1t-63 -1h-108v-425z" />
<glyph unicode="C" horiz-adv-x="1529" d="M70 830q0 346 219 570t560 224q178 0 357 -95q158 -84 241 -195l31 -40l-274 -257l-81 71l20 47q7 16 7 40q0 72 -67 134q-79 72 -209 72q-202 0 -337.5 -148.5t-135.5 -389.5q0 -320 191 -506q179 -174 456 -174q93 0 151 24q76 32 100 104l9 27h114v-338h-44 q-67 0 -128 -5q-183 -16 -216 -16q-450 0 -711 239q-253 232 -253 612z" />
<glyph unicode="D" horiz-adv-x="1599" d="M42 1487v90h506q396 0 663 -201q304 -228 304 -634q0 -350 -237 -554q-218 -188 -552 -188h-673v90h10q19 0 30.5 7t26.5 21t18.5 59t3.5 94v1098q0 40 -7 57q-2 5 -22 30q-25 31 -58 31h-2h-11zM459 190l147 2q132 0 236 31q156 47 246 158q113 139 113 371 q0 295 -239 479q-192 147 -393 147h-3l-107 -2v-1186z" />
<glyph unicode="E" horiz-adv-x="1469" d="M40 1487v90h1273v-297h-102q-7 46 -35 81q-19 23 -46.5 29t-88.5 6h-78h-516v-408h457q39 0 68.5 10.5t55 32.5t32.5 64h100v-390h-91q-5 23 -10.5 34.5t-18.5 24.5l-27 27q-28 16 -109 16h-457v-614l646 2q47 0 75.5 9.5t61 40.5t48.5 80h109v-325h-1345v90h11 q18 0 30 7t31 24q12 11 17.5 50.5t5.5 78.5v1118q0 56 -26.5 87.5t-59.5 31.5h-11z" />
<glyph unicode="F" horiz-adv-x="1422" d="M39 1487v90h1294v-320h-111q0 47 -35 93q-19 26 -52 34t-105 8h-70h-512v-432h391h49q35 0 55 4.5t47 21.5q42 30 61 79h93v-397h-107q0 56 -38 90q-12 11 -50 15t-88 4h-22h-387v-561q0 -54 5 -69t35 -40q19 -18 58 -17v-90h-504v90h10q32 0 55 31q12 16 17.5 41.5 t5.5 50.5v37v1126q0 33 -4.5 51t-18.5 34q-19 26 -62 26h-10z" />
<glyph unicode="G" horiz-adv-x="1659" d="M69 879q0 280 214 501q243 250 621 250q169 0 316 -53q172 -62 301 -190l31 -32l-253 -279l-90 60l32 44q9 12 14 26t5 28q0 74 -98 138t-227 64q-232 0 -385 -170.5t-153 -421.5q0 -257 153 -426q120 -132 318 -198q148 -49 275 -49h66v552q0 18 -3.5 31.5t-15.5 26.5 q-18 22 -61 22h-4h-10v101h486v-97h-10q-35 0 -62 -32q-7 -9 -9.5 -29t-2.5 -55v-441q0 -37 1 -74t14 -49.5t27 -24.5t30 -12h12v-90l-144 -5q-62 0 -163.5 -9t-143.5 -9q-461 0 -761 234q-320 250 -320 668z" />
<glyph unicode="H" horiz-adv-x="1583" d="M69 0v90h12q16 0 30 7.5t28 21t16.5 44t2.5 87.5v1119q0 35 -2.5 53t-14.5 34q-25 31 -56 31h-2h-14v90h494v-90h-11q-37 0 -63 -30q-12 -16 -14 -21q-7 -18 -7 -60v-404h638l-2 403q0 33 -4.5 52.5t-18.5 35.5q-25 29 -58 29h-2h-10v85h499v-83h-10q-37 0 -60 -29 t-23 -87v-1128q0 -39 10.5 -79.5t21.5 -49.5q18 -18 29 -24.5t30 -6.5h11v-90h-501v90h12q18 0 29.5 7t30.5 24q12 11 17.5 50.5t5.5 76.5v529h-645v-527q0 -53 4 -84t22 -46t32 -22.5t37 -7.5h10v-90h-504z" />
<glyph unicode="I" horiz-adv-x="720" d="M100 0v90h11q40 0 68 28q16 14 20.5 36t4.5 60v39v1095v35q0 32 -4.5 50.5t-20.5 32.5t-30 17.5t-38 3.5h-11v90h506v-90h-10q-23 0 -36 -4.5t-27 -18.5q-26 -28 -27 -77v-1137v-39q0 -33 6.5 -54.5t25.5 -36.5t36.5 -22.5t35.5 -7.5h11v-90h-521z" />
<glyph unicode="J" horiz-adv-x="1314" d="M62 394l300 212l67 -72l-32 -42q-24 -34 -24 -78q0 -87 73 -161.5t173 -74.5q16 0 24 1q128 14 181 106q39 69 39 190v898q0 28 -3.5 49t-15.5 35q-26 30 -62 30h-10v90h481v-90h-10q-35 0 -60 -30q-7 -9 -10.5 -35t-3.5 -51v-896q0 -227 -128 -361q-141 -146 -403 -146 q-155 0 -292 78q-148 84 -225 234z" />
<glyph unicode="K" horiz-adv-x="1715" d="M83 0v90h12q18 0 29 7t33 27t22 71q-2 35 -1 55v1119q0 33 -4.5 51t-18.5 36q-25 31 -58 31h-2h-12v90h494v-90h-11q-37 0 -61 -30q-7 -9 -10 -29t-3 -55v-475l482 478q26 25 35 37q16 21 9 39q-7 23 -24.5 29t-45.5 6h-11v90h601v-90h-10q-19 0 -34.5 -1t-58.5 -19 t-44 -20q-42 -23 -71 -49l-372 -361l550 -789q25 -33 48.5 -65t40 -47.5t41 -30.5t42.5 -15h11v-90h-572v90h11q51 0 75 31q2 2 2 6q0 16 -33 65q-21 28 -42 58l-401 576l-218 -225v-351q0 -51 4.5 -82t22.5 -47.5t29.5 -23.5t31.5 -7h10v-90h-518z" />
<glyph unicode="L" horiz-adv-x="1348" d="M76 0v90h12q14 0 25 5q9 4 35 28q14 14 14 76q0 19 -1 39t-1 40v1093v37q0 33 -12 49q-25 30 -60 30h-12v90h483v-90h-11q-37 0 -61 -30q-12 -16 -12 -51v-35v-1172l485 1q65 0 105.5 12.5t76.5 53t46 96.5h109v-362h-1221z" />
<glyph unicode="M" horiz-adv-x="1923" d="M46 0v90h10q19 0 30.5 6t33.5 25q14 11 23.5 48t14.5 81l139 1119q4 32 4 48q0 26 -12.5 42t-24 22t-30.5 6h-11v90h491l235 -742l236 742h515v-90h-11q-35 0 -61 -30q-14 -21 -14 -74q0 -11 3 -31l164 -1102q5 -40 17.5 -76.5t27.5 -54t18 -19.5q12 -11 30 -10h11v-90 h-482v90l7 1q18 0 32.5 9t25 29t10.5 59q0 26 -5 62l-149 1053l-290 -943h-206l-311 932l-130 -1042q-4 -21 -6.5 -46t-2.5 -39q0 -30 12 -44q27 -31 60 -31h2h10v-90h-416z" />
<glyph unicode="N" horiz-adv-x="1624" d="M44 0v90h10q18 0 30.5 7t29 22.5t26 51t9.5 79.5v1118q0 23 -9.5 44.5t-23.5 41.5q-28 33 -62 33h-10v90h478l728 -687l2 457q0 42 -3 65.5t-20 43.5q-31 31 -63 31h-2h-13v90h429v-90h-12q-18 0 -29 -7t-31 -23q-11 -11 -21 -56.5t-10 -64.5v-1086q0 -67 4 -95 t16.5 -39.5t26.5 -19.5t32 -8h10v-88h-430v90h10q21 0 37 7.5t31 23.5t20 37t5 49v43v223l-856 809v-1032q0 -39 5.5 -80.5t14.5 -48.5q34 -31 70 -31h2h10v-90h-441z" />
<glyph unicode="O" horiz-adv-x="1824" d="M74 805q0 343 245 576t613 233q380 0 611 -236q222 -225 222 -573q0 -376 -246 -610t-628 -234q-359 0 -588 245.5t-229 598.5zM527 362q144 -195 413 -195q250 0 385 206q118 177 118 448q0 257 -110 410q-131 182 -398 182h-3q-250 0 -396 -189q-133 -171 -133 -422 q0 -271 124 -440z" />
<glyph unicode="P" horiz-adv-x="1441" d="M58 0v90h11q18 0 30 7t30.5 23.5t24.5 34t6 40.5q-2 35 -2 55v1130q0 40 -26.5 73.5t-62.5 33.5h-11v90h842q176 0 315 -107q163 -127 163 -345q0 -199 -132 -336q-105 -109 -321 -198q-65 -26 -399 -137l-50 -18l2 -186q0 -53 4.5 -84t23.5 -48q33 -28 69 -28h12v-90 h-529zM478 638l121 48q211 81 312 158q144 112 144 265q0 172 -157 236q-121 49 -399 49l-21 -2v-754z" />
<glyph unicode="Q" horiz-adv-x="1917" d="M69 810q0 341 232.5 577.5t591.5 236.5q369 0 613.5 -233.5t244.5 -580.5q0 -178 -48.5 -304t-155.5 -249l35 -25q40 -26 76 -26q12 0 17 1q39 7 56.5 31t17.5 59h104v-290q-30 -11 -60 -23q-62 -19 -119 -19h-25q-58 0 -104 14q-76 23 -151 86l-30 25 q-113 -72 -224.5 -103t-237.5 -31q-371 0 -608 260q-225 246 -225 594zM392 803q0 -269 116 -439q137 -200 404 -201q104 0 180 30q23 9 89 50q-21 32 -91 80q-97 67 -171 67q-63 0 -94.5 -6t-86.5 -36l-77 146q74 49 146 67.5t170 18.5q90 0 187.5 -45t166.5 -118 q58 97 74.5 174t16.5 221q0 262 -98 410q-122 184 -396 184h-3q-267 0 -408 -182q-125 -162 -125 -421z" />
<glyph unicode="R" horiz-adv-x="1583" d="M86 0v90h11q19 0 30.5 7t26.5 22t19.5 46.5t4.5 78.5v1124q0 30 -4.5 50t-17.5 36q-28 33 -59 33h-11v90h853q171 0 311 -99q169 -118 169 -314q0 -137 -74 -252q-81 -125 -215 -163l-70 -23l352 -554q12 -19 24.5 -32t31.5 -26q38 -24 76 -24h3v-90h-392l-422 680h-236 v-430q0 -40 1 -80t12 -49q34 -31 74 -31h3h11v-90h-512zM492 877h308q116 0 193 49q106 67 106 204q0 148 -102 208q-83 49 -250 49l-255 -2v-508z" />
<glyph unicode="S" horiz-adv-x="1488" d="M63 369l322 223l69 -72l-23 -30q-26 -37 -27 -80q0 -91 93 -159q101 -73 258 -73h4q144 0 234 52q118 69 118 218q0 121 -135 183q-49 23 -273 74l-104 26q-223 53 -319 125q-141 105 -141 306q0 218 176 339q167 114 444 115q190 0 337 -62.5t263 -206.5l23 -29 l-252 -228l-75 58l16 40q4 9 5 18q2 9 2 18q0 76 -109 133.5t-217 57.5q-132 0 -211 -35q-105 -47 -105 -153q0 -111 121 -162q42 -18 241 -61l125 -28q230 -51 353 -157q153 -130 153 -341q0 -230 -190.5 -373.5t-510.5 -143.5q-195 0 -357 88q-171 93 -278 271z" />
<glyph unicode="T" horiz-adv-x="1423" d="M44 1255v322h1331v-322h-93q2 16 -2.5 39.5t-19.5 44t-48.5 29t-72.5 8.5h-267v-1126v-58q0 -54 11.5 -72t30.5 -24t44 -6h11v-90h-505v90h12q42 0 74 31q9 9 11.5 29.5t2.5 60.5v39v1126h-290q-39 0 -60 -6t-43 -27q-9 -11 -19 -39.5t-10 -48.5h-98z" />
<glyph unicode="U" horiz-adv-x="1592" d="M54 689q0 146 66 322q60 163 165 323l31 49q9 9 13 16q11 16 10 28q0 16 -11.5 33.5t-23.5 22t-40 4.5h-11v90h501v-90l-30 -3q-93 -11 -216 -260q-132 -267 -132 -494q0 -246 127 -380q134 -141 358 -141l268 -3v1167q0 56 -24 85t-59 29h-12v90h490v-90h-10 q-37 0 -62 -30q-18 -21 -18 -88v-1107v-55q0 -35 6.5 -57.5t27.5 -36.5q32 -23 58 -23v-90h-62l-770 -2q-274 0 -457 202.5t-183 488.5z" />
<glyph unicode="V" horiz-adv-x="1564" d="M54 1487v90h507v-90h-11q-25 0 -31 -2q-14 -4 -25.5 -17.5t-11.5 -33.5q0 -14 10.5 -43t13.5 -37l322 -997l334 995q11 30 15 47.5t4 34.5q0 14 -5 25q-16 23 -56 28h-11v90h403v-90h-11q-30 0 -46.5 -24.5t-29.5 -47.5t-17 -33l-469 -1382h-310l-460 1382q-16 42 -49 81 q-11 12 -23 17q-9 4 -30 7h-13z" />
<glyph unicode="W" horiz-adv-x="2123" d="M40 1487v90h487v-90h-14q-42 0 -63 -37q-4 -7 -3 -19q0 -21 3.5 -36t11.5 -43l278 -909l200 791l-42 146q-12 42 -38 74q-11 11 -21.5 22t-24.5 11h-12v90h492v-90h-12q-23 0 -37 -4.5t-26.5 -18.5t-12.5 -47q0 -37 10 -69l268 -912l249 925q9 32 9 61q0 32 -10.5 44 t-25.5 16.5t-31 4.5h-17v90h413v-90h-11q-18 0 -23 -2t-27 -22.5t-38 -80.5l-367 -1382h-281l-260 824l-196 -824h-300l-431 1380q-5 18 -10 37q-12 35 -23 49q-18 21 -48 21h-16z" />
<glyph unicode="X" horiz-adv-x="1655" d="M49 0v88l11 2q30 7 46.5 21t34 28t47.5 60q16 25 34 51l409 587l-390 557q-30 44 -76 72q-21 12 -37.5 16.5t-37.5 4.5h-11v90h589v-90h-11q-46 0 -63 -30q-5 -9 3.5 -30.5t24.5 -44.5l234 -333l218 319q23 35 23 37q9 18 9 35q0 12 -4 19q-5 16 -23.5 22t-44.5 6h-13v90 h524v-90h-10q-33 0 -53.5 -4.5t-40 -22t-22.5 -20.5q-21 -21 -36 -42l-369 -528l401 -594q28 -40 62.5 -84t48.5 -55.5t32.5 -25t41.5 -18.5l10 -3v-90h-569v90h10q25 0 43.5 9.5t25.5 28.5q5 14 -3 32.5t-52 89.5l-274 407l-278 -407q-23 -33 -30 -48q-14 -26 -14 -46 q0 -16 7 -24q25 -42 74 -42h11v-90h-512z" />
<glyph unicode="Y" horiz-adv-x="1557" d="M49 1487v90h529v-90h-12q-25 0 -39.5 -6t-20.5 -25q-4 -12 2.5 -32.5t20.5 -45.5l288 -513l268 513q12 23 12 53q0 19 -4 25q-9 19 -30 25t-50 6h-13v90h496v-90h-11q-37 0 -42 -2q-7 -4 -23 -19q-28 -32 -37 -42q-16 -23 -22 -35l-419 -756v-383q0 -56 3 -88t13 -41 q29 -31 71 -31h3h10v-90h-511v90h10q37 0 67 31q9 9 11 30t2 34q0 16 -1 31.5t-1 33.5v362l-419 722q-19 33 -46 74.5t-43 54t-21 15.5q-12 9 -27 9h-14z" />
<glyph unicode="Z" horiz-adv-x="1439" d="M69 0v185l852 1198h-409q-79 0 -125 -11t-83 -55q-44 -54 -44 -116h-111v376h1176v-167l-864 -1213h430q86 0 164.5 20t110.5 54q79 79 79 179h133v-450h-1309z" />
<glyph unicode="[" horiz-adv-x="530" d="M70 -323l2 2048h390v-148h-12h-53q-42 0 -64 -4.5t-39 -25.5q-7 -9 -12.5 -36t-5.5 -55v-1530q0 -62 20 -84.5t54.5 -27t55.5 -4.5h44h12v-133h-392z" />
<glyph unicode="\" horiz-adv-x="1119" d="M67 1582h119l886 -1586h-116z" />
<glyph unicode="]" horiz-adv-x="525" d="M70 -190h13h44q54 0 73.5 6t36.5 26q9 11 14.5 33.5t5.5 50.5v1530q0 26 -5.5 54t-14.5 37q-16 18 -41 24t-62 6h-51h-13v148h391l1 -2048h-392v133z" />
<glyph unicode="^" horiz-adv-x="815" d="M62 1341l351 236l357 -236l-33 -51l-320 118l-326 -121z" />
<glyph unicode="_" horiz-adv-x="1471" d="M-11 -320h1516v-32h-1516v32z" />
<glyph unicode="`" horiz-adv-x="666" d="M60 1466q0 37 23 65q33 46 95 46q46 0 80 -28q105 -84 228.5 -188t125.5 -115l-30 -63q-7 -2 -151 51q-160 58 -282 107q-90 37 -89 125z" />
<glyph unicode="a" horiz-adv-x="1248" d="M93 330q0 141 100 233q86 79 246 126q118 35 313 63l78 11l-2 33q0 76 -77.5 115.5t-217.5 39.5q-60 0 -127 -25.5t-105 -83.5l-16 -25h-99v241l46 14q107 32 215.5 48t185.5 16q480 0 480 -378v-612q0 -33 24.5 -52.5t52.5 -14.5v-79h-343v111l-24 -21 q-134 -120 -343 -120q-167 0 -274 95q-113 100 -113 265zM397 334q0 -84 55.5 -126.5t136.5 -42.5q72 0 139 48q58 40 82 89l20 39v260l-64 -10q-216 -37 -298 -106q-70 -58 -71 -151z" />
<glyph unicode="b" horiz-adv-x="1263" d="M44 1503v74h362v-549l51 39q58 39 129 61t137 22q218 0 348 -171q112 -147 112 -344q0 -294 -195 -470q-183 -165 -461 -165h-474v79l16 4q14 2 23.5 9.5t21 21t11.5 41.5v30v1174v27t2 27q0 25 -4.5 39t-20.5 26q-28 25 -58 25zM410 178h93q148 0 255 93 q128 112 128 316q0 142 -60 239q-69 113 -193 113q-116 0 -192 -86l-31 -36v-639z" />
<glyph unicode="c" horiz-adv-x="1137" d="M69 568q0 234 135 390q156 181 441 181q97 0 202 -37q128 -46 215 -128l21 -23l-186 -234l-76 49l9 39q4 21 3 28q0 54 -51 87t-121 33q-141 0 -220 -121q-70 -107 -70 -261q0 -206 121 -318q102 -95 246 -95q102 0 152 49q35 56 42 67h93v-274l-41 -16 q-19 -7 -85.5 -15.5t-123.5 -8.5q-283 0 -488 165q-218 174 -218 443z" />
<glyph unicode="d" horiz-adv-x="1288" d="M91 478q0 294 199.5 470.5t555.5 176.5h31v273q0 25 -7 47.5t-26 36.5q-30 21 -56 21v74h367v-1348q0 -33 5.5 -66t17.5 -45q25 -32 54 -35l18 -4v-79h-357v120l-39 -32q-79 -60 -144 -89t-147 -29q-200 0 -336 147.5t-136 360.5zM394 492q0 -104 45 -190 q66 -124 208 -124h2q65 0 120 34t91 82l17 22v617h-51q-162 0 -274 -80q-158 -114 -158 -361z" />
<glyph unicode="e" d="M69 563q0 241 150 408.5t377 167.5q218 0 355 -156q132 -149 132 -366v-53h-726l3 -35q0 -171 125 -274q113 -93 267 -93q127 0 210 79q18 18 68 93h81v-281l-30 -13q-65 -30 -169.5 -51t-243.5 -21q-251 0 -425 170.5t-174 424.5zM362 730h417q0 88 -54.5 156.5 t-139.5 68.5q-91 0 -157 -64.5t-66 -160.5z" />
<glyph unicode="f" horiz-adv-x="840" d="M107 939v158h123v83q0 146 14 207q23 100 101 160q51 40 119.5 57t140.5 17q76 0 147 -14q33 -7 67 -18v-269h-89q0 46 -44 88q-33 32 -81 32q-39 0 -67 -42.5t-28 -107.5v-193h220v-158h-215l2 -726v-37q0 -28 4.5 -42t15.5 -26.5t26 -17t38 -7.5l16 -4v-79h-452v79 l16 4q26 5 44 28q12 14 12 47v37v744h-130z" />
<glyph unicode="g" horiz-adv-x="1281" d="M28 -227l243 188l63 -56l-19 -33q-9 -14 -9 -34q0 -58 99.5 -102t195.5 -44q113 0 190 44q91 53 91 151q0 16 -3.5 45t-8.5 79q-11 77 -19 93l-35 -20q-88 -47 -136 -65q-66 -24 -140 -24h-6q-202 0 -337 123q-142 130 -143 343q0 302 197 476q188 165 493 165h467v-74 q-28 -7 -49 -29q-14 -18 -20 -42.5t-6 -52.5v-39v-622q0 -123 14 -203q31 -174 31 -182q0 -178 -209 -276q-165 -77 -371 -78q-178 0 -302 51q-135 56 -243 185zM352 513q0 -141 73.5 -226t195.5 -85q97 0 196 92l30 28v596h-88q-172 0 -286 -108q-121 -114 -121 -297z" />
<glyph unicode="h" horiz-adv-x="1302" d="M84 1503v74h363v-564l54 40q51 40 137 66.5t157 26.5q174 0 276 -110.5t102 -307.5v-543q0 -21 0.5 -41.5t13.5 -34.5q19 -21 56 -26l16 -4v-79h-442v79l16 4q33 5 53 26q9 11 11.5 26.5t2.5 40.5v24v480q0 128 -46.5 190.5t-153.5 71.5q-151 0 -227 -125l-23 -38v-566 q0 -40 2.5 -64t13.5 -36q19 -25 53 -30l15 -4v-79h-439v79l18 4q18 4 26 7q9 4 20.5 17.5t11.5 55.5v43v1190q0 26 -6.5 46.5t-22.5 34.5q-30 26 -58 26z" />
<glyph unicode="i" horiz-adv-x="587" d="M54 1021v83h371v-919q0 -30 3 -47.5t13 -30.5q18 -19 58 -24l16 -4v-79h-455v79l16 4q25 4 37 8t24 18t15.5 31.5t3.5 44.5v741q0 21 -10.5 38t-27.5 33q-9 7 -29 15.5t-35 8.5zM91 1431q0 79 48.5 133.5t138.5 54.5q88 0 140 -58q47 -53 48 -130q0 -76 -49 -131 t-139 -55q-86 0 -136.5 55t-50.5 131z" />
<glyph unicode="j" horiz-adv-x="527" d="M-105 -202h89l14 -32q33 -70 107 -70q46 4 74 32q25 25 25 64v8q0 42 -11 68q-26 65 -26 183v854q0 74 -44 101q-30 17 -58 17h-3v81h381v-1046v-98q0 -234 -91 -326q-81 -81 -255 -119q-21 -4 -53 -4q-46 0 -79.5 4.5t-69.5 18.5v264zM102 1442q0 74 48.5 128t134.5 54 q88 0 135.5 -53.5t47.5 -128.5q0 -76 -44 -125q-51 -58 -139 -58q-86 0 -134.5 53.5t-48.5 129.5z" />
<glyph unicode="k" horiz-adv-x="1283" d="M37 1503v74h374v-974l352 318q25 23 32 32q14 18 10 35q-5 35 -39 35h-15v81h437v-81h-17q-18 0 -29.5 -6t-35.5 -26l-90 -77l-220 -188l329 -541q9 -18 25 -41q11 -16 27.5 -36t46.5 -25l17 -4v-79h-468v79l16 4q26 4 37 15q12 16 -7 50q-11 16 -21 33l-211 362 l-172 -158v-200v-34q0 -33 10 -44q18 -19 50 -24l17 -4v-79h-445v79l16 4q21 4 23 3q18 5 30 21q7 9 10.5 25.5t3.5 30.5v22v1216q0 30 -4.5 45t-19.5 28t-37.5 21t-31.5 8z" />
<glyph unicode="l" horiz-adv-x="595" d="M65 1503v74h376v-1392q0 -30 3 -47.5t13 -30.5q18 -19 58 -24l16 -4v-79h-455v79l17 4q21 4 34.5 8t24.5 17t11 54v23v1216q0 30 -4 46.5t-20 30t-40.5 20.5t-33.5 5z" />
<glyph unicode="m" horiz-adv-x="2012" d="M62 1023v81h358v-120q53 56 146 99q105 47 211 47q100 0 175.5 -37.5t146.5 -120.5q47 60 154 107q120 53 236 53q192 0 285 -104q88 -98 88 -288v-534v-44q0 -16 0.5 -31t10.5 -25.5t23 -15t34 -7.5l18 -4v-79h-436v79l17 4q18 2 36 22q9 9 12 27.5t3 74.5v523 q0 109 -59 160q-50 43 -139 43h-4q-67 0 -108 -19t-85 -68l-41 -48v-613q0 -26 3.5 -45.5t17 -35.5t44.5 -21l18 -4v-79h-439v79l17 4q30 5 42.5 21t12.5 47v34v530q0 102 -49.5 160t-133.5 58q-72 0 -124 -21.5t-91 -78.5l-35 -51l2 -597v-36q0 -37 9.5 -48t24.5 -14t26 -4 l17 -4v-79h-432v79l17 4q33 7 45.5 20t12.5 46v36v719v26q0 16 -2.5 32.5t-21.5 34.5q-33 27 -55 27q-4 0 -8 -1z" />
<glyph unicode="n" horiz-adv-x="1306" d="M62 1023v81h344v-114q46 56 157.5 103.5t227.5 47.5q178 0 271 -118q88 -113 88 -308v-530q0 -23 0.5 -43.5t12 -33.5t24.5 -18q9 -4 31 -7l16 -4v-79h-452v79l30 4q11 2 18 7q4 4 17 17.5t14.5 39t1.5 38.5v530q0 100 -42 157q-51 67 -155 67q-74 0 -123 -27 q-33 -18 -81 -66l-42 -48v-613v-23q0 -16 1 -30t10 -25q18 -19 58 -24l16 -4v-79h-442v79l18 4q30 5 44 21.5t14 57.5v23v694q0 58 -3.5 81.5t-26.5 45.5q-9 9 -23 12t-24 5z" />
<glyph unicode="o" horiz-adv-x="1297" d="M56 526q0 260 162 432q169 181 439 181q241 0 407.5 -166t166.5 -419q0 -246 -155 -417q-161 -177 -408 -177h-3q-260 0 -434.5 165t-174.5 401zM360 571q0 -178 58 -281q76 -134 241 -134q141 0 211 116q62 101 62 252q0 169 -62 285q-74 139 -216 139q-135 0 -206 -69 q-88 -86 -88 -308z" />
<glyph unicode="p" horiz-adv-x="1321" d="M44 1023v81h353l-1 -127l33 36q65 69 169 107q83 31 158 31h5q216 0 350 -165q121 -149 121 -353q0 -348 -237 -508q-188 -127 -517 -127l-58 2v-290q0 -53 19 -77q9 -9 18 -14q12 -7 42 -11l16 -2l-2 -77h-462v77l18 2q30 4 33 5q14 5 26.5 18.5t12.5 43.5q-2 23 -2 35 v1194q0 54 -5.5 73.5t-19.5 31t-37 14t-33 0.5zM415 179h79q232 0 346 123q100 107 100 297q0 171 -72 265t-203 94q-74 0 -138 -49q-53 -40 -98 -114l-14 -23v-593z" />
<glyph unicode="q" horiz-adv-x="1281" d="M54 455q0 348 231 517q181 132 455 132h473v-81q-14 -2 -26 -2q-9 -2 -23 -14q-30 -30 -30 -74v-1244q0 -16 1 -33.5t10.5 -30t23.5 -17t35 -7.5l16 -4v-68h-445v67l16 1q18 4 28 7q12 5 22 16t13 23q4 11 4 25v17v391l-46 -32q-67 -42 -124 -59.5t-136 -17.5 q-200 0 -349 148.5t-149 339.5zM355 513q0 -144 58 -235q70 -111 213 -111q62 0 105.5 21t96.5 69l23 19v652h-69q-199 0 -300 -81q-127 -100 -127 -334z" />
<glyph unicode="r" horiz-adv-x="893" d="M72 1023v81h332v-132q30 44 60 70.5t76.5 50t104.5 35t104 11.5q23 0 38.5 -1.5t36.5 -5.5v-306h-82l-7 27q-9 33 -40.5 57.5t-73.5 24.5q-65 0 -122.5 -60.5t-57.5 -115.5v-578q0 -28 3 -46.5t11.5 -30t22.5 -16t34 -9.5l17 -3v-76h-448v76l16 3q33 5 45.5 21t12.5 58 v23v751q0 25 -3.5 40.5t-17 28.5t-30 17.5t-32.5 4.5z" />
<glyph unicode="s" horiz-adv-x="1130" d="M69 246l212 199l67 -55l-19 -24q-23 -28 -23 -60q0 -60 73 -105t175 -45q21 0 31 2q107 9 145 28q54 28 54 99q0 84 -132 121q-69 18 -137 35l-70 23q-146 46 -216 109q-93 83 -94 211q0 158 130.5 248.5t342.5 90.5q125 0 229 -40q128 -51 202 -155l16 -23l-169 -182 l-72 56l10 16q14 19 15 44q0 47 -64.5 80.5t-152.5 33.5q-91 0 -142 -23q-65 -30 -65 -95q0 -54 65 -86q25 -12 130 -42l74 -20q193 -56 258 -100q129 -88 129 -264q0 -156 -141 -251q-134 -90 -345 -90q-165 0 -303 58t-192 164z" />
<glyph unicode="t" horiz-adv-x="799" d="M69 942v157h121v320l271 84v-403h232v-160h-229v-675q0 -54 24.5 -78.5t77.5 -24.5q35 0 64 22t35 48l8 39h83l2 -248l-44 -14q-60 -18 -110 -26t-101 -8q-142 0 -227.5 74t-85.5 197v696h-121z" />
<glyph unicode="u" horiz-adv-x="1327" d="M70 1023v81h368v-740q0 -86 45 -137q53 -58 152 -58q88 0 168 56q93 65 94 156v551q0 30 -4.5 46.5t-19.5 29.5t-38 15t-35 0v81h387v-919q0 -30 2.5 -47.5t12.5 -30.5q18 -19 50 -24l17 -4v-79h-358v121l-37 -28q-88 -67 -163 -96.5t-173 -29.5q-183 0 -287 103 q-97 97 -96 250v612v23q0 37 -15 51t-36 16.5t-34 0.5z" />
<glyph unicode="v" horiz-adv-x="1193" d="M23 1023v81h467v-81h-19q-28 0 -49 -23q-9 -11 5 -53t20 -56l195 -576l204 583q5 18 10 41.5t5 39.5q0 18 -7 25q-18 19 -42 19h-17v81h351v-81h-17q-26 0 -40.5 -16.5t-26 -54.5t-18.5 -59l-320 -893h-272l-315 893l-16 44q-14 35 -30 56q-21 30 -58 30h-10z" />
<glyph unicode="w" horiz-adv-x="1791" d="M51 1023v81h429v-81h-9q-35 0 -46 -21q-4 -7 -4 -19q0 -19 11 -48l211 -575l150 449l-56 147q-9 23 -17 36.5t-17.5 22t-39.5 8.5h-9v81h441v-81h-7q-33 0 -45.5 -10.5t-12.5 -24.5q0 -18 12 -55l194 -581l184 548q11 35 11 63q0 30 -8 41.5t-17 15.5t-35 3h-16v81h384 v-81h-7q-32 0 -44.5 -9.5t-31.5 -48.5q-12 -23 -19 -44l-331 -921h-227l-186 519l-169 -519h-242l-336 921q-12 33 -22.5 55.5t-21.5 30.5q-21 16 -42 16h-9z" />
<glyph unicode="x" horiz-adv-x="1323" d="M51 0v81l9 2q21 5 28 8q11 5 24 14t35 37.5t43 56.5l292 367l-289 390q-11 18 -19 27q-5 5 -20 19t-29 17.5t-35 3.5h-7v81h504v-81h-7q-21 0 -28 -2q-14 -4 -22 -14t-8 -23q0 -21 19 -45l150 -204l155 183q12 16 20 39.5t1 39.5q-7 26 -41 26h-7v81h403v-81h-7 q-37 0 -47.5 -9.5t-19.5 -14.5q-18 -14 -33 -37l-291 -357l308 -410q18 -26 38 -52.5t32 -35.5q26 -18 51 -26l9 -2v-79h-469v81h9q21 0 38 12q9 7 -1 28q-2 4 -55 78l-165 235l-181 -235q-16 -23 -30 -47t-11 -34q11 -33 55 -34h9v-84h-410z" />
<glyph unicode="y" horiz-adv-x="1262" d="M49 1023v81h454v-81h-16q-16 0 -35 -19q-7 -12 -7 -30q0 -23 10 -48l243 -590l209 571q11 25 11 55q0 28 -14 42q-2 2 -17 10.5t-29 8.5l-5 81h360v-81l-16 -2q-14 -2 -24 -10q-7 -5 -19.5 -19.5t-20.5 -42.5t-11 -35l-350 -923q-91 -246 -176 -339q-114 -128 -316 -128 q-74 0 -115.5 7t-106.5 35v290h90l14 -30q46 -100 146 -100q95 0 172 102q60 80 60 133q0 11 -2 20l-7 28l-378 889q-7 19 -16 37q-14 32 -26.5 48t-15.5 21q-12 14 -30 17z" />
<glyph unicode="z" horiz-adv-x="1079" d="M69 0v163l553 746h-239q-49 0 -77 -4.5t-48.5 -21t-34.5 -39.5t-16 -37h-103v297h887v-169l-536 -736h262q86 0 143 56q35 35 44 81h105v-336h-940z" />
<glyph unicode="{" horiz-adv-x="509" d="M58 599l14 9q21 12 32.5 23t30.5 32q14 14 22 40.5t8 57.5v608q0 32 10 77.5t29 77.5q26 42 65.5 68.5t89.5 26.5h91l-21 -25q-18 -18 -29 -36t-17.5 -42t-10 -62.5t-3.5 -71.5v-596q0 -40 -5 -63t-26 -53q-11 -18 -24 -28.5t-34 -22.5l-25 -16l26 -18q16 -12 29 -27 t25.5 -38.5t24 -75.5t11.5 -94v-542q0 -42 1.5 -67.5t12.5 -62.5t16 -47q14 -32 42 -46l21 -10h-114q-35 0 -83 29q-56 37 -77 83q-14 32 -17.5 54t-3.5 62v600q0 42 -8 72.5t-34 64.5q-19 26 -57 49z" />
<glyph unicode="|" horiz-adv-x="283" d="M54 -471v2053h157v-2053h-157z" />
<glyph unicode="}" horiz-adv-x="515" d="M54 -425l20 10q28 14 43 38t23 54.5t8 65.5q-2 42 -2 65l2 542q0 37 7.5 83.5t29.5 88.5q11 23 21 36t31 27l27 18l-23 11q-35 19 -56 49q-37 46 -37 123v596q0 44 -3 62.5t-13.5 67.5t-41.5 82l-21 23l87 2q56 0 95 -26q32 -21 62 -69q19 -28 29 -73.5t10 -81.5l1 -608 q0 -54 32 -98q25 -33 60 -55l16 -9l-13 -10q-12 -9 -23 -16q-21 -16 -33 -33q-21 -28 -32.5 -67t-11.5 -70v-600q0 -63 -20 -116t-77.5 -82.5t-108.5 -29.5h-88z" />
<glyph unicode="~" horiz-adv-x="780" d="M56 1438q47 60 106 97q72 46 147 45q44 0 146 -37q47 -18 83 -17q19 0 40 3.5t44 17.5q7 5 44 33l53 -49q-44 -60 -105 -102q-77 -53 -159 -53h-16q-37 0 -137 36q-51 18 -86 17q-32 0 -56 -10q-9 -4 -53 -30z" />
<glyph unicode="&#xa1;" horiz-adv-x="522" d="M56 944q0 83 49 139q56 63 153 63q95 0 152 -63q51 -58 51 -139q0 -83 -50 -139q-56 -63 -153 -63t-149.5 59.5t-52.5 142.5zM100 -269q0 107 18 297q9 88 38 353q14 120 29 241l5 57h135l5 -57q23 -218 39 -342q58 -459 67 -549q4 -35 3 -61q0 -86 -29 -132 q-42 -63 -148 -64q-86 0 -124 56.5t-38 200.5z" />
<glyph unicode="&#xa2;" horiz-adv-x="1151" d="M67 840q0 200 129 338.5t349 171.5v230h163v-230q102 -11 202 -58t176 -128l-161 -218l-85 47l6 35q9 65 -51 105t-129 40q-162 0 -239 -118q-62 -93 -61 -234q0 -156 88 -276q102 -139 274 -139q100 0 158 58q42 63 49 74h97v-255q-49 -23 -84.5 -34.5t-77.5 -19 t-77 -9.5t-85 -2v-218h-161v232l-32 7q-209 51 -334 232q-114 165 -114 369z" />
<glyph unicode="&#xa3;" horiz-adv-x="1597" d="M67 197q0 109 76.5 176.5t201.5 67.5q76 0 133 -17q23 -7 79 -28l35 -13q-14 62 -31 120q-5 16 -25 75q-30 81 -61 150h-387l107 179h195l-10 46q-14 54 -17.5 89.5t-3.5 98.5q0 211 186 341q169 118 397 118q144 0 254 -40.5t244 -135.5l45 -32l-184 -323l-104 46l16 38 q11 26 11 53q0 79 -82 141.5t-179 62.5q-107 0 -191 -60q-104 -74 -104 -200q0 -118 40 -208l13 -30h425l-97 -184h-247q25 -44 49 -139q19 -74 19 -128q0 -65 -2 -81q-9 -37 -14 -64l46 -17q97 -35 163 -52t136 -17q123 0 123 93q0 69 -65 87q-21 4 -30 3q-28 0 -52 -9.5 t-36 -25.5l-60 107q77 63 176 63q120 0 201.5 -80t81.5 -208q0 -144 -116 -228q-98 -72 -223 -72q-116 0 -243 70q-72 40 -144 81l-46 24l-42 -40q-76 -70 -159 -101t-184 -31q-123 0 -214 60q-100 65 -100 174zM236 195q0 -42 39.5 -60.5t90.5 -18.5q74 0 130 44 q44 34 58 74q-23 18 -69.5 32t-118.5 14q-54 0 -92 -20.5t-38 -64.5z" />
<glyph unicode="&#xa5;" horiz-adv-x="1545" d="M49 1487v90h529v-90h-12q-25 0 -39.5 -6t-20.5 -25q-4 -12 2.5 -32.5t20.5 -45.5l288 -513l268 513q12 23 12 53q0 19 -4 25q-9 19 -30 25t-50 6h-13v90h496v-90h-11q-37 0 -42 -2q-7 -4 -23 -19q-28 -32 -37 -42q-16 -23 -22 -35l-292 -526h169v-123h-236l-60 -107v-27 h296v-126h-296v-230q0 -56 3 -88t13 -41q30 -32 74 -31h10v-90h-511v90h10q37 0 67 31q9 9 11 30t2 34q0 16 -1 31.5t-1 33.5v230h-315v126h315l-74 134h-241v123h169l-273 471q-19 33 -46 74.5t-43 54t-21 15.5q-12 9 -27 9h-14z" />
<glyph unicode="&#xa7;" horiz-adv-x="1061" d="M63 638q0 81 50 164q37 62 94 114l23 21l-21 16q-40 28 -66.5 80.5t-26.5 110.5q0 178 114 315q128 153 326 153q63 0 98 -2.5t79 -15.5l130 -40l21 -9l-2 -12l-12 -153l-9 -128v-23h-63l-17 163l-8 9q-40 42 -118 69.5t-150 27.5q-98 0 -169 -52t-90 -159q-2 -9 -2 -27 q0 -97 143 -154q158 -44 184 -51l65 -21q58 -16 100.5 -29.5t102.5 -39.5q90 -37 130 -118q33 -65 33 -153v-35q-3 -16 -3 -21q-9 -79 -50 -142q-28 -44 -70 -81l-44 -39l11 -7q62 -40 93 -95.5t31 -136.5q0 -165 -160.5 -314.5t-352.5 -149.5q-100 0 -199 30 q-74 23 -135 58l-16 9l27 325h63v-83q0 -81 81 -135q65 -44 142 -53q21 -2 37 -2.5t26 -0.5q135 0 231 65t105 170q7 81 -96 127q-181 62 -329 112l-79 27q-160 54 -218 161q-33 62 -34 155zM206 698q0 -62 88 -116q62 -39 207 -88q118 -39 236 -77l47 -18l19 28 q40 58 51 118q2 11 2 33q0 63 -33 111q-44 63 -143 95l-388 123l-34 -35q-32 -35 -42 -74t-10 -100z" />
<glyph unicode="&#xa8;" horiz-adv-x="806" d="M62 1440q0 56 37.5 99t104.5 43q69 0 105.5 -41t36.5 -101t-36.5 -101.5t-105.5 -41.5t-105.5 41.5t-36.5 101.5zM464 1440q0 56 38 99t104 43q69 0 106 -41t37 -101t-37 -101.5t-106 -41.5t-105.5 41.5t-36.5 101.5z" />
<glyph unicode="&#xa9;" horiz-adv-x="1678" d="M74 788q0 315 191 530q213 241 579 241q364 0 578 -241q193 -218 194 -530q0 -313 -192 -530q-214 -240 -580 -240q-362 0 -577 240q-193 218 -193 530zM156 788q0 -280 171 -473q190 -215 517 -215q325 0 517 215q172 193 172 473t-172 472q-192 216 -517 217 q-325 0 -515 -215q-172 -195 -173 -474zM394 793q0 181 116 299q98 98 241 126q21 4 47 5.5t51 1.5q47 0 80 -3.5t71.5 -11.5t84.5 -18q54 -16 63 -18l18 -5l-27 -181h-37v76v12q0 26 -48 52.5t-88 32.5t-69.5 9.5t-52.5 3.5q-28 0 -58 -5q-135 -30 -204 -132 q-60 -90 -60 -223q0 -37 5 -74q16 -142 116.5 -239t235.5 -97q86 0 143 15t112 45l28 14l9 -12l-21 -53l-28 -14q-40 -19 -114.5 -38.5t-135.5 -19.5q-200 0 -327.5 103.5t-147.5 281.5q-2 23 -2.5 39.5t-0.5 27.5z" />
<glyph unicode="&#xaa;" horiz-adv-x="722" d="M77 833l2 92h584v-92h-586zM83 1160q0 79 65 130q77 60 277 88l41 5l-2 18q0 39 -40.5 60t-112.5 21q-30 0 -65 -14t-54 -42l-9 -14h-51v124l23 9q53 16 110.5 24t98.5 8q248 0 248 -195v-318q0 -18 14 -27q11 -11 26 -9v-40h-177v58l-13 -12q-70 -62 -177 -62 q-86 0 -144 51t-58 137zM241 1162q0 -44 29 -66t71 -22q37 0 69.5 23t44.5 47l11 22v135l-34 -7q-111 -18 -154 -53q-37 -30 -37 -79z" />
<glyph unicode="&#xab;" horiz-adv-x="1139" d="M63 497v222l450 332v-218l-318 -228l311 -222v-230zM628 497v222l450 332v-218l-320 -228l313 -222v-230z" />
<glyph unicode="&#xac;" horiz-adv-x="1673" d="M70 538v119h1544v-657h-127v538h-1417z" />
<glyph unicode="&#xad;" horiz-adv-x="562" d="M62 482v248h439v-248h-439z" />
<glyph unicode="&#xae;" horiz-adv-x="1671" d="M67 793q0 313 191 529q214 241 579 241q362 0 576 -241q193 -218 194 -529q0 -313 -192 -529q-214 -241 -578 -241q-362 0 -577 241q-193 218 -193 529zM149 793q0 -281 171 -473q190 -215 517 -215q325 0 517 215q172 192 172 473q0 280 -172 473q-190 214 -517 214 q-325 0 -515 -214q-172 -193 -173 -473zM482 371v37l33 2q21 0 35 2.5t25 14.5q19 19 19 48v634v27q-2 9 -17 26q-9 11 -33 14.5t-50 3.5h-12v36h19l153 -5q53 0 109 1t116 3l21 1q79 0 135 -22q74 -30 99 -97q14 -39 14 -72q0 -53 -29 -99.5t-85 -83.5q-25 -16 -65 -30 q-25 -9 -48 -14l-10 -3l272 -359l30 -23l32 -9h8v-35h-10l-70 5l-69 -5l-16 -2l-337 438l5 19l42 -1q86 0 156.5 51t70.5 126q0 144 -137 166q-32 4 -48 3q-42 0 -62 -2.5t-48 -9.5l-20 -6v-676q0 -30 16 -48q11 -12 35.5 -15.5t31.5 -3.5l30 -2v-35h-20q-2 0 -58 3.5 t-91 3.5q-33 0 -72 -2.5t-81 -4.5h-19z" />
<glyph unicode="&#xb0;" horiz-adv-x="474" d="M58 1433q0 74 45 125t131 51q83 0 132 -55q44 -49 44 -121q0 -74 -43 -122q-47 -54 -133 -54q-83 0 -129.5 52t-46.5 124zM127 1431q0 -44 28 -75.5t79 -31.5t79 31.5t28 75.5t-27 76.5t-80 32.5q-51 0 -79 -31.5t-28 -77.5z" />
<glyph unicode="&#xb1;" horiz-adv-x="1003" d="M62 -2v81h877v-81h-877zM77 645l2 107h382v387h103v-387h384v-107h-387v-385h-100v385h-384z" />
<glyph unicode="&#xb4;" horiz-adv-x="687" d="M69 1246q2 9 123 113t230 190q35 28 83 28q58 0 93 -46q23 -28 23 -67q0 -86 -90 -123q-118 -47 -280 -107q-144 -53 -153 -51z" />
<glyph unicode="&#xb5;" horiz-adv-x="1246" d="M7 -357q0 65 18 123q46 151 47 171l5 61v1101h187v-756q0 -95 56 -166.5t144 -71.5t178 71q97 76 96 163v760h181v-856q0 -69 32 -125t86 -56q12 0 18 1q37 7 60.5 32.5t34.5 64.5l17 60h39l-12 -69q-18 -81 -101 -140q-74 -53 -147 -53q-12 2 -18 2q-74 11 -133.5 72 t-59.5 144l-56 -55q-70 -70 -146 -112t-136 -42q-58 0 -125 29q-81 37 -126 99v-77q0 -67 38.5 -171t38.5 -190q0 -56 -30 -99t-80 -43q-47 0 -76.5 37.5t-29.5 90.5z" />
<glyph unicode="&#xb6;" horiz-adv-x="1550" d="M53 1067q0 213 135 353q153 158 426 159l877 1v-153h-208v-1643q0 -14 1 -33.5t20.5 -39.5t52.5 -20v-57h-274v1793h-132v-1794h-281v52q39 0 63 27q11 14 13.5 28t2.5 28l-2 842l-61 7q-265 28 -422 114q-211 116 -211 336zM280 1028q0 -125 126.5 -228.5t279.5 -103.5 l59 -2v730l-58 5q-14 2 -29.5 2h-24.5q-171 0 -259 -95q-95 -102 -94 -308z" />
<glyph unicode="&#xb7;" horiz-adv-x="550" d="M67 731q0 195 51 331q58 151 156 151t157 -149q53 -137 52 -333q0 -197 -51 -330q-58 -151 -158 -151q-97 0 -152 143t-55 338z" />
<glyph unicode="&#xba;" horiz-adv-x="733" d="M67 798l2 92h583v-92h-585zM72 1252q0 134 85.5 226t225.5 92q123 0 209.5 -86t86.5 -218q0 -128 -81 -218t-211 -90q-135 0 -225 86t-90 208zM229 1275q0 -91 29 -146q39 -69 125 -69q72 0 109 60q32 53 32 130q0 88 -32 148q-39 72 -111 72q-90 0 -126 -62 q-26 -44 -26 -133z" />
<glyph unicode="&#xbb;" horiz-adv-x="1137" d="M60 833v218l450 -332v-222l-443 -344v230l313 222zM626 833v218l448 -332v-222l-443 -344v230l313 222z" />
<glyph unicode="&#xbf;" horiz-adv-x="1241" d="M63 62q0 218 152 354t370 136l81 5v120h202v-403h-123q-190 0 -288 -84q-83 -70 -83 -194q0 -137 101.5 -216t268.5 -79q104 0 178.5 45t100.5 122l16 44h134v-360l-36 -11q-116 -32 -207 -45t-188 -13q-304 0 -496 172q-183 163 -183 407zM557 933q0 81 51 139 q58 65 153 65q93 0 148 -61q49 -56 49 -137t-51 -139q-58 -65 -153 -65q-93 0 -145 59t-52 139z" />
<glyph unicode="&#xc0;" horiz-adv-x="1749" d="M40 0v90h13q18 0 44 17q7 4 26 36.5t30 60.5l515 1373h325l529 -1327q28 -74 30 -78q7 -14 34 -51q18 -32 58 -31h10v-90h-525v90h12q28 0 51.5 17.5t23.5 47.5q0 25 -10.5 52t-13.5 37l-135 327h-530l-137 -374q-11 -28 -10 -49q0 -14 7 -24.5t29.5 -22t47.5 -11.5h11 v-90h-435zM577 1988q0 37 23 65q33 46 95 46q46 0 80 -28q105 -84 228.5 -188t125.5 -115l-30 -63q-7 -2 -151 51q-160 58 -282 107q-90 37 -89 125zM598 779h385l-208 499z" />
<glyph unicode="&#xc1;" horiz-adv-x="1685" d="M40 0v90h13q18 0 44 17q7 4 26 36.5t30 60.5l515 1373h325l529 -1327q28 -74 30 -78q7 -14 34 -51q18 -32 58 -31h10v-90h-525v90h12q28 0 51.5 17.5t23.5 47.5q0 25 -10.5 52t-13.5 37l-135 327h-530l-137 -374q-11 -28 -10 -49q0 -14 7 -24.5t29.5 -22t47.5 -11.5h11 v-90h-435zM574 1775q2 9 123 113t230 190q35 28 83 28q58 0 93 -46q23 -28 23 -67q0 -86 -90 -123q-118 -47 -280 -107q-144 -53 -153 -51zM598 779h385l-208 499z" />
<glyph unicode="&#xc2;" horiz-adv-x="1685" d="M40 0v90h13q18 0 44 17q7 4 26 36.5t30 60.5l515 1373h325l529 -1327q28 -74 30 -78q7 -14 34 -51q18 -32 58 -31h10v-90h-525v90h12q28 0 51.5 17.5t23.5 47.5q0 25 -10.5 52t-13.5 37l-135 327h-530l-137 -374q-11 -28 -10 -49q0 -14 7 -24.5t29.5 -22t47.5 -11.5h11 v-90h-435zM505 1759l351 236l357 -236l-33 -51l-320 118l-326 -121zM598 779h385l-208 499z" />
<glyph unicode="&#xc3;" horiz-adv-x="1749" d="M40 0v90h13q18 0 44 17q7 4 26 36.5t30 60.5l515 1373h325l529 -1327q28 -74 30 -78q7 -14 34 -51q18 -32 58 -31h10v-90h-525v90h12q28 0 51.5 17.5t23.5 47.5q0 25 -10.5 52t-13.5 37l-135 327h-530l-137 -374q-11 -28 -10 -49q0 -14 7 -24.5t29.5 -22t47.5 -11.5h11 v-90h-435zM506 1767q47 60 106 97q72 46 147 45q44 0 146 -37q47 -18 83 -17q19 0 40 3.5t44 17.5q7 5 44 33l53 -49q-44 -60 -105 -102q-77 -53 -159 -53h-16q-37 0 -137 36q-51 18 -86 17q-32 0 -56 -10q-9 -4 -53 -30zM598 779h385l-208 499z" />
<glyph unicode="&#xc4;" horiz-adv-x="1740" d="M40 0v90h13q18 0 44 17q7 4 26 36.5t30 60.5l515 1373h325l529 -1327q28 -74 30 -78q7 -14 34 -51q18 -32 58 -31h10v-90h-525v90h12q28 0 51.5 17.5t23.5 47.5q0 25 -10.5 52t-13.5 37l-135 327h-530l-137 -374q-11 -28 -10 -49q0 -14 7 -24.5t29.5 -22t47.5 -11.5h11 v-90h-435zM498 1855q0 56 37.5 99t104.5 43q69 0 105.5 -41t36.5 -101t-36.5 -101.5t-105.5 -41.5t-105.5 41.5t-36.5 101.5zM598 779h385l-208 499zM900 1855q0 56 38 99t104 43q69 0 106 -41t37 -101t-37 -101.5t-106 -41.5t-105.5 41.5t-36.5 101.5z" />
<glyph unicode="&#xc5;" horiz-adv-x="1736" d="M40 -9v90h13q18 0 44 17q7 4 26 36.5t30 60.5l515 1373h325l529 -1327q28 -74 30 -78q7 -14 34 -51q18 -32 58 -31h10v-90h-525v90h12q28 0 51.5 17.5t23.5 47.5q0 25 -10.5 52t-13.5 37l-135 327h-530l-137 -374q-11 -28 -10 -49q0 -14 7 -24.5t29.5 -22t47.5 -11.5h11 v-90h-435zM598 770h385l-208 499zM633 1892q0 74 45 125t131 51q83 0 132 -55q44 -49 44 -121q0 -74 -43 -122q-47 -54 -133 -54q-83 0 -129.5 52t-46.5 124zM702 1890q0 -44 28 -75.5t79 -31.5t79 31.5t28 75.5t-27 76.5t-80 32.5q-51 0 -79 -31.5t-28 -77.5z" />
<glyph unicode="&#xc6;" horiz-adv-x="2636" d="M74 0l37 90h10q14 0 50 17q25 11 42 28q5 5 52 69l860 1107q23 28 33.5 53t10.5 51q0 19 -11 39q-19 30 -63 30h-10v95h1420v-299h-102q-7 46 -35 81q-19 23 -40.5 32.5t-50.5 9.5q-11 0 -51.5 -3.5t-70.5 -3.5h-517v-408h457q42 0 70.5 8t54 36t32.5 63h100v-390h-91 q-5 23 -10.5 34.5t-18.5 24.5t-28 27q-28 16 -109 16h-457v-614l644 -1q46 0 76.5 10.5t64 44t47.5 78.5h109v-325h-1419l37 90h11q32 0 63.5 18.5t43.5 53.5t12 82v327h-541l-289 -374q-19 -26 -26 -42t-3 -32q2 -11 21 -22t42 -11h10l-36 -90h-431zM940 779h387l2 504z " />
<glyph unicode="&#xc7;" horiz-adv-x="1525" d="M70 819q0 346 219 570.5t560 224.5q178 0 357 -95q158 -84 241 -195l31 -41l-274 -256l-81 70l20 47q7 16 7 41q0 72 -67 133q-79 72 -209 73q-202 0 -337.5 -149t-135.5 -389q0 -320 191 -507q179 -174 456 -174q93 0 151 25q76 32 100 104l9 26h114v-323l-44 -9 q-81 -16 -127.5 -20.5t-123.5 -4.5q-46 0 -120 3.5t-119 3.5l-55 -114l46 -4q98 0 164 -48t66 -147q0 -90 -77 -144q-70 -49 -169 -49q-111 0 -191 39q-95 46 -95 121q0 33 25.5 55t62.5 22q74 0 102 -66t82 -66q42 0 66.5 26.5t24.5 67.5q0 56 -54 81.5t-128 25.5l-51 -2 l-41 51l79 174l-51 14q-255 69 -418 244q-206 222 -206 561z" />
<glyph unicode="&#xc8;" horiz-adv-x="1439" d="M40 1487v90h1273v-297h-102q-7 46 -35 81q-19 23 -46.5 29t-88.5 6h-78h-516v-408h457q39 0 68.5 10.5t55 32.5t32.5 64h100v-390h-91q-5 23 -10.5 34.5t-18.5 24.5l-27 27q-28 16 -109 16h-457v-614l646 2q47 0 75.5 9.5t61 40.5t48.5 80h109v-325h-1345v90h11 q18 0 30 7t31 24q12 11 17.5 50.5t5.5 78.5v1118q0 56 -26.5 87.5t-59.5 31.5h-11zM540 1995q0 37 23 65q33 46 95 46q46 0 80 -28q105 -84 228.5 -188t125.5 -115l-30 -63q-7 -2 -151 51q-160 58 -282 107q-90 37 -89 125z" />
<glyph unicode="&#xc9;" horiz-adv-x="1469" d="M40 1478v90h1273v-297h-102q-7 46 -35 81q-19 23 -46.5 29t-88.5 6h-78h-516v-408h457q39 0 68.5 10.5t55 32.5t32.5 64h100v-390h-91q-5 23 -10.5 34.5t-18.5 24.5l-27 27q-28 16 -109 16h-457v-614l646 2q47 0 75.5 9.5t61 40.5t48.5 80h109v-325h-1345v90h11 q18 0 30 7t31 24q12 11 17.5 50.5t5.5 78.5v1118q0 56 -26.5 87.5t-59.5 31.5h-11zM466 1768q2 9 123 113t230 190q35 28 83 28q58 0 93 -46q23 -28 23 -67q0 -86 -90 -123q-118 -47 -280 -107q-144 -53 -153 -51z" />
<glyph unicode="&#xca;" horiz-adv-x="1439" d="M40 1487v90h1273v-297h-102q-7 46 -35 81q-19 23 -46.5 29t-88.5 6h-78h-516v-408h457q39 0 68.5 10.5t55 32.5t32.5 64h100v-390h-91q-5 23 -10.5 34.5t-18.5 24.5l-27 27q-28 16 -109 16h-457v-614l646 2q47 0 75.5 9.5t61 40.5t48.5 80h109v-325h-1345v90h11 q18 0 30 7t31 24q12 11 17.5 50.5t5.5 78.5v1118q0 56 -26.5 87.5t-59.5 31.5h-11zM382 1759l351 236l357 -236l-33 -51l-320 118l-326 -121z" />
<glyph unicode="&#xcb;" horiz-adv-x="1439" d="M40 1487v90h1273v-297h-102q-7 46 -35 81q-19 23 -46.5 29t-88.5 6h-78h-516v-408h457q39 0 68.5 10.5t55 32.5t32.5 64h100v-390h-91q-5 23 -10.5 34.5t-18.5 24.5l-27 27q-28 16 -109 16h-457v-614l646 2q47 0 75.5 9.5t61 40.5t48.5 80h109v-325h-1345v90h11 q18 0 30 7t31 24q12 11 17.5 50.5t5.5 78.5v1118q0 56 -26.5 87.5t-59.5 31.5h-11zM431 1858q0 56 37.5 99t104.5 43q69 0 105.5 -41t36.5 -101t-36.5 -101.5t-105.5 -41.5t-105.5 41.5t-36.5 101.5zM833 1858q0 56 38 99t104 43q69 0 106 -41t37 -101t-37 -101.5 t-106 -41.5t-105.5 41.5t-36.5 101.5z" />
<glyph unicode="&#xcc;" horiz-adv-x="713" d="M60 1995q0 37 23 65q33 46 95 46q46 0 80 -28q105 -84 228.5 -188t125.5 -115l-30 -63q-7 -2 -151 51q-160 58 -282 107q-90 37 -89 125zM100 0v90h11q40 0 68 28q16 14 20.5 36t4.5 60v39v1095v35q0 32 -4.5 50.5t-20.5 32.5t-30 17.5t-38 3.5h-11v90h506v-90h-10 q-23 0 -36 -4.5t-27 -18.5q-26 -28 -27 -77v-1137v-39q0 -33 6.5 -54.5t25.5 -36.5t36.5 -22.5t35.5 -7.5h11v-90h-521z" />
<glyph unicode="&#xcd;" horiz-adv-x="701" d="M81 1763q2 9 123 113t230 190q35 28 83 28q58 0 93 -46q23 -28 23 -67q0 -86 -90 -123q-118 -47 -280 -107q-144 -53 -153 -51zM100 0v90h11q40 0 68 28q16 14 20.5 36t4.5 60v39v1095v35q0 32 -4.5 50.5t-20.5 32.5t-30 17.5t-38 3.5h-11v90h506v-90h-10q-23 0 -36 -4.5 t-27 -18.5q-26 -28 -27 -77v-1137v-39q0 -33 6.5 -54.5t25.5 -36.5t36.5 -22.5t35.5 -7.5h11v-90h-521z" />
<glyph unicode="&#xce;" horiz-adv-x="762" d="M25 1747l351 236l357 -236l-33 -51l-320 118l-326 -121zM125 0v90h11q40 0 68 28q16 14 20.5 36t4.5 60v39v1095v35q0 32 -4.5 50.5t-20.5 32.5t-30 17.5t-38 3.5h-11v90h506v-90h-10q-23 0 -36 -4.5t-27 -18.5q-26 -28 -27 -77v-1137v-39q0 -33 6.5 -54.5t25.5 -36.5 t36.5 -22.5t35.5 -7.5h11v-90h-521z" />
<glyph unicode="&#xcf;" horiz-adv-x="731" d="M25 1858q0 56 37.5 99t104.5 43q69 0 105.5 -41t36.5 -101t-36.5 -101.5t-105.5 -41.5t-105.5 41.5t-36.5 101.5zM100 0v90h11q40 0 68 28q16 14 20.5 36t4.5 60v39v1095v35q0 32 -4.5 50.5t-20.5 32.5t-30 17.5t-38 3.5h-11v90h506v-90h-10q-23 0 -36 -4.5t-27 -18.5 q-26 -28 -27 -77v-1137v-39q0 -33 6.5 -54.5t25.5 -36.5t36.5 -22.5t35.5 -7.5h11v-90h-521zM427 1858q0 56 38 99t104 43q69 0 106 -41t37 -101t-37 -101.5t-106 -41.5t-105.5 41.5t-36.5 101.5z" />
<glyph unicode="&#xd1;" horiz-adv-x="1663" d="M44 0v90h10q18 0 30.5 7t29 22.5t26 51t9.5 79.5v1118q0 23 -9.5 44.5t-23.5 41.5q-28 33 -62 33h-10v90h478l728 -687l2 457q0 42 -3 65.5t-20 43.5q-32 32 -65 31h-13v90h429v-90h-12q-18 0 -29 -7t-31 -23q-11 -11 -21 -56.5t-10 -64.5v-1086q0 -67 4 -95t16.5 -39.5 t26.5 -19.5t32 -8h10v-88h-430v90h10q21 0 37 7.5t31 23.5t20 37t5 49v43v223l-856 809v-1032q0 -39 5.5 -80.5t14.5 -48.5q35 -32 72 -31h10v-90h-441zM452 1772q47 60 106 97q72 46 147 45q44 0 146 -37q47 -18 83 -17q19 0 40 3.5t44 17.5q7 5 44 33l53 -49 q-44 -60 -105 -102q-77 -53 -159 -53h-16q-37 0 -137 36q-51 18 -86 17q-32 0 -56 -10q-9 -4 -53 -30z" />
<glyph unicode="&#xd2;" horiz-adv-x="1833" d="M74 805q0 343 245 576t613 233q380 0 611 -236q222 -225 222 -573q0 -376 -246 -610t-628 -234q-359 0 -588 245.5t-229 598.5zM403 798q0 -267 124 -436q144 -195 413 -195q250 0 385 206q118 177 118 448q0 257 -110 410q-132 183 -401 182q-250 0 -396 -189 q-134 -172 -133 -426zM651 1995q0 37 23 65q33 46 95 46q46 0 80 -28q105 -84 228.5 -188t125.5 -115l-30 -63q-7 -2 -151 51q-160 58 -282 107q-90 37 -89 125z" />
<glyph unicode="&#xd3;" horiz-adv-x="1833" d="M74 805q0 343 245 576t613 233q380 0 611 -236q222 -225 222 -573q0 -376 -246 -610t-628 -234q-359 0 -588 245.5t-229 598.5zM403 798q0 -267 124 -436q144 -195 413 -195q250 0 385 206q118 177 118 448q0 257 -110 410q-132 183 -401 182q-250 0 -396 -189 q-134 -172 -133 -426zM623 1775q2 9 123 113t230 190q35 28 83 28q58 0 93 -46q23 -28 23 -67q0 -86 -90 -123q-118 -47 -280 -107q-144 -53 -153 -51z" />
<glyph unicode="&#xd4;" horiz-adv-x="1833" d="M74 805q0 343 245 576t613 233q380 0 611 -236q222 -225 222 -573q0 -376 -246 -610t-628 -234q-359 0 -588 245.5t-229 598.5zM403 798q0 -267 124 -436q144 -195 413 -195q250 0 385 206q118 177 118 448q0 257 -110 410q-132 183 -401 182q-250 0 -396 -189 q-134 -172 -133 -426zM579 1759l351 236l357 -236l-33 -51l-320 118l-326 -121z" />
<glyph unicode="&#xd5;" horiz-adv-x="1824" d="M74 805q0 343 245 576t613 233q380 0 611 -236q222 -225 222 -573q0 -376 -246 -610t-628 -234q-359 0 -588 245.5t-229 598.5zM403 798q0 -267 124 -436q144 -195 413 -195q250 0 385 206q118 177 118 448q0 257 -110 410q-132 183 -401 182q-250 0 -396 -189 q-134 -172 -133 -426zM590 1768q47 60 106 97q72 46 147 45q44 0 146 -37q47 -18 83 -17q19 0 40 3.5t44 17.5q7 5 44 33l53 -49q-44 -60 -105 -102q-77 -53 -159 -53h-16q-37 0 -137 36q-51 18 -86 17q-32 0 -56 -10q-9 -4 -53 -30z" />
<glyph unicode="&#xd6;" horiz-adv-x="1833" d="M70 805q0 343 245 576t613 233q380 0 611 -236q222 -225 222 -573q0 -376 -246 -610t-628 -234q-359 0 -588 245.5t-229 598.5zM399 798q0 -267 124 -436q144 -195 413 -195q250 0 385 206q118 177 118 448q0 257 -110 410q-132 183 -401 182q-250 0 -396 -189 q-134 -172 -133 -426zM639 1855q0 56 37.5 99t104.5 43q69 0 105.5 -41t36.5 -101t-36.5 -101.5t-105.5 -41.5t-105.5 41.5t-36.5 101.5zM1041 1855q0 56 38 99t104 43q69 0 106 -41t37 -101t-37 -101.5t-106 -41.5t-105.5 41.5t-36.5 101.5z" />
<glyph unicode="&#xd8;" horiz-adv-x="1826" d="M74 805q0 343 245 576t613 233q123 0 226.5 -25.5t198.5 -76.5l72 116h169l-120 -195q137 -111 212 -273.5t75 -354.5q0 -376 -246 -610t-628 -234q-72 0 -140.5 13.5t-140.5 39.5l-44 -72h-170l80 132q-190 109 -296 301.5t-106 429.5zM403 798q0 -162 48 -297t150 -223 l638 1040q-58 44 -135 69.5t-172 25.5q-250 0 -396 -189q-134 -172 -133 -426zM726 204q93 -37 214 -37q250 0 385 206q118 177 118 448q0 105 -26 206.5t-77 178.5z" />
<glyph unicode="&#xd9;" horiz-adv-x="1587" d="M54 689q0 146 66 322q60 163 165 323l31 49q9 9 13 16q11 16 10 28q0 16 -11.5 33.5t-23.5 22t-40 4.5h-11v90h501v-90l-30 -3q-93 -11 -216 -260q-132 -267 -132 -494q0 -246 127 -380q134 -141 358 -141l268 -3v1167q0 56 -24 85t-59 29h-12v90h490v-90h-10 q-37 0 -62 -30q-18 -21 -18 -88v-1107v-55q0 -35 6.5 -57.5t27.5 -36.5q32 -23 58 -23v-90h-62l-770 -2q-274 0 -457 202.5t-183 488.5zM626 1995q0 37 23 65q33 46 95 46q46 0 80 -28q105 -84 228.5 -188t125.5 -115l-30 -63q-7 -2 -151 51q-160 58 -282 107 q-90 37 -89 125z" />
<glyph unicode="&#xda;" horiz-adv-x="1575" d="M54 689q0 146 66 322q60 163 165 323l31 49q9 9 13 16q11 16 10 28q0 16 -11.5 33.5t-23.5 22t-40 4.5h-11v90h501v-90l-30 -3q-93 -11 -216 -260q-132 -267 -132 -494q0 -246 127 -380q134 -141 358 -141l268 -3v1167q0 56 -24 85t-59 29h-12v90h490v-90h-10 q-37 0 -62 -30q-18 -21 -18 -88v-1107v-55q0 -35 6.5 -57.5t27.5 -36.5q32 -23 58 -23v-90h-62l-770 -2q-274 0 -457 202.5t-183 488.5zM561 1775q2 9 123 113t230 190q35 28 83 28q58 0 93 -46q23 -28 23 -67q0 -86 -90 -123q-118 -47 -280 -107q-144 -53 -153 -51z" />
<glyph unicode="&#xdb;" horiz-adv-x="1599" d="M54 689q0 146 66 322q60 163 165 323l31 49q9 9 13 16q11 16 10 28q0 16 -11.5 33.5t-23.5 22t-40 4.5h-11v90h501v-90l-30 -3q-93 -11 -216 -260q-132 -267 -132 -494q0 -246 127 -380q134 -141 358 -141l268 -3v1167q0 56 -24 85t-59 29h-12v90h490v-90h-10 q-37 0 -62 -30q-18 -21 -18 -88v-1107v-55q0 -35 6.5 -57.5t27.5 -36.5q32 -23 58 -23v-90h-62l-770 -2q-274 0 -457 202.5t-183 488.5zM505 1759l351 236l357 -236l-33 -51l-320 118l-326 -121z" />
<glyph unicode="&#xdc;" horiz-adv-x="1599" d="M54 689q0 146 66 322q60 163 165 323l31 49q9 9 13 16q11 16 10 28q0 16 -11.5 33.5t-23.5 22t-40 4.5h-11v90h501v-90l-30 -3q-93 -11 -216 -260q-132 -267 -132 -494q0 -246 127 -380q134 -141 358 -141l268 -3v1167q0 56 -24 85t-59 29h-12v90h490v-90h-10 q-37 0 -62 -30q-18 -21 -18 -88v-1107v-55q0 -35 6.5 -57.5t27.5 -36.5q32 -23 58 -23v-90h-62l-770 -2q-274 0 -457 202.5t-183 488.5zM523 1855q0 56 37.5 99t104.5 43q69 0 105.5 -41t36.5 -101t-36.5 -101.5t-105.5 -41.5t-105.5 41.5t-36.5 101.5zM925 1855q0 56 38 99 t104 43q69 0 106 -41t37 -101t-37 -101.5t-106 -41.5t-105.5 41.5t-36.5 101.5z" />
<glyph unicode="&#xdf;" horiz-adv-x="1754" d="M-98 -213l54 115l33 -13q39 -12 108 -12h23h17q12 4 18 3q213 33 276 183q37 88 37 320v545h-152l29 164h123l3 47q0 207 185 341q172 125 406 125q174 0 297 -72q142 -83 142 -229q0 -125 -116 -214q-127 -67 -251 -132q0 -21 146 -70q183 -60 271 -130 q147 -116 147 -301q0 -225 -170.5 -352.5t-453.5 -127.5q-81 0 -173 17t-133 34l-42 19l51 129l49 -20q37 -14 81 -20t88 -6h35.5t34.5 2q162 0 266 70q121 83 121 245q0 148 -146 244q-62 40 -276 121q-153 58 -162 111q-11 74 197 155.5t208 181.5q0 16 -2 25 q-16 104 -68.5 141.5t-156.5 37.5q-192 0 -288 -123q-84 -107 -85 -286v-798q0 -229 -146.5 -372t-370.5 -143q-60 0 -123 8.5t-103 26.5z" />
<glyph unicode="&#xe0;" horiz-adv-x="1220" d="M93 330q0 141 100 233q86 79 246 126q118 35 313 63l78 11l-2 33q0 76 -77.5 115.5t-217.5 39.5q-60 0 -127 -25.5t-105 -83.5l-16 -25h-99v241l46 14q107 32 215.5 48t185.5 16q480 0 480 -378v-612q0 -33 24.5 -52.5t52.5 -14.5v-79h-343v111l-24 -21 q-134 -120 -343 -120q-167 0 -274 95q-113 100 -113 265zM362 1512q0 33 21 63q33 44 92 44q40 0 77 -28q118 -93 218 -179q116 -100 120 -111l-29 -60q-9 -2 -144 47.5t-270 103.5q-84 33 -85 120zM397 334q0 -84 55.5 -126.5t136.5 -42.5q72 0 139 48q58 40 82 89l20 39 v260l-64 -10q-216 -37 -298 -106q-70 -58 -71 -151z" />
<glyph unicode="&#xe1;" horiz-adv-x="1214" d="M93 330q0 141 100 233q86 79 246 126q118 35 313 63l78 11l-2 33q0 76 -77.5 115.5t-217.5 39.5q-60 0 -127 -25.5t-105 -83.5l-16 -25h-99v241l46 14q107 32 215.5 48t185.5 16q480 0 480 -378v-612q0 -33 24.5 -52.5t52.5 -14.5v-79h-343v111l-24 -21 q-134 -120 -343 -120q-167 0 -274 95q-113 100 -113 265zM360 1301q4 11 115.5 106.5t224.5 183.5q35 28 79 28q56 0 89 -44q21 -30 22 -63q0 -37 -23 -70.5t-64 -49.5q-107 -44 -267 -102q-141 -51 -146 -49zM397 334q0 -84 55.5 -126.5t136.5 -42.5q72 0 139 48 q58 40 82 89l20 39v260l-64 -10q-216 -37 -298 -106q-70 -58 -71 -151z" />
<glyph unicode="&#xe2;" horiz-adv-x="1223" d="M93 330q0 141 100 233q86 79 246 126q118 35 313 63l78 11l-2 33q0 76 -77.5 115.5t-217.5 39.5q-60 0 -127 -25.5t-105 -83.5l-16 -25h-99v241l46 14q107 32 215.5 48t185.5 16q480 0 480 -378v-612q0 -33 24.5 -52.5t52.5 -14.5v-79h-343v111l-24 -21 q-134 -120 -343 -120q-167 0 -274 95q-113 100 -113 265zM284 1297l351 236l357 -236l-33 -51l-320 118l-326 -121zM397 334q0 -84 55.5 -126.5t136.5 -42.5q72 0 139 48q58 40 82 89l20 39v260l-64 -10q-216 -37 -298 -106q-70 -58 -71 -151z" />
<glyph unicode="&#xe3;" horiz-adv-x="1225" d="M93 330q0 141 100 233q86 79 246 126q118 35 313 63l78 11l-2 33q0 76 -77.5 115.5t-217.5 39.5q-60 0 -127 -25.5t-105 -83.5l-16 -25h-99v241l46 14q107 32 215.5 48t185.5 16q480 0 480 -378v-612q0 -33 24.5 -52.5t52.5 -14.5v-79h-343v111l-24 -21 q-134 -120 -343 -120q-167 0 -274 95q-113 100 -113 265zM318 1301q47 60 106 97q72 46 147 45q44 0 146 -37q47 -18 83 -17q19 0 40 3.5t44 17.5q7 5 44 33l53 -49q-44 -60 -105 -102q-77 -53 -159 -53h-16q-37 0 -137 36q-51 18 -86 17q-32 0 -56 -10q-9 -4 -53 -30z M397 334q0 -84 55.5 -126.5t136.5 -42.5q72 0 139 48q58 40 82 89l20 39v260l-64 -10q-216 -37 -298 -106q-70 -58 -71 -151z" />
<glyph unicode="&#xe4;" horiz-adv-x="1212" d="M93 330q0 141 100 233q86 79 246 126q118 35 313 63l78 11l-2 33q0 76 -77.5 115.5t-217.5 39.5q-60 0 -127 -25.5t-105 -83.5l-16 -25h-99v241l46 14q107 32 215.5 48t185.5 16q480 0 480 -378v-612q0 -33 24.5 -52.5t52.5 -14.5v-79h-343v111l-24 -21 q-134 -120 -343 -120q-167 0 -274 95q-113 100 -113 265zM282 1380q0 56 37.5 99t104.5 43q69 0 105.5 -41t36.5 -101t-36.5 -101.5t-105.5 -41.5t-105.5 41.5t-36.5 101.5zM397 334q0 -84 55.5 -126.5t136.5 -42.5q72 0 139 48q58 40 82 89l20 39v260l-64 -10 q-216 -37 -298 -106q-70 -58 -71 -151zM684 1380q0 56 38 99t104 43q69 0 106 -41t37 -101t-37 -101.5t-106 -41.5t-105.5 41.5t-36.5 101.5z" />
<glyph unicode="&#xe5;" horiz-adv-x="1218" d="M93 330q0 141 100 233q86 79 246 126q118 35 313 63l78 11l-2 33q0 76 -77.5 115.5t-217.5 39.5q-60 0 -127 -25.5t-105 -83.5l-16 -25h-99v241l46 14q107 32 215.5 48t185.5 16q480 0 480 -378v-612q0 -33 24.5 -52.5t52.5 -14.5v-79h-343v111l-24 -21 q-134 -120 -343 -120q-167 0 -274 95q-113 100 -113 265zM397 334q0 -84 55.5 -126.5t136.5 -42.5q72 0 139 48q58 40 82 89l20 39v260l-64 -10q-216 -37 -298 -106q-70 -58 -71 -151zM459 1422q0 74 45 125t131 51q83 0 132 -55q44 -49 44 -121q0 -74 -43 -122 q-47 -54 -133 -54q-83 0 -129.5 52t-46.5 124zM528 1420q0 -44 28 -75.5t79 -31.5t79 31.5t28 75.5t-27 76.5t-80 32.5q-51 0 -79 -31.5t-28 -77.5z" />
<glyph unicode="&#xe6;" horiz-adv-x="1998" d="M93 330q0 209 209 319q178 93 450 93l78 5l-2 34q0 77 -80 123.5t-215 46.5q-60 0 -127 -25.5t-105 -83.5l-16 -25h-99v241l46 14q107 32 215.5 48t185.5 16q155 0 237 -36q49 -21 127 -93q81 65 91 72q104 60 246 60q218 0 355 -151q132 -146 132 -360v-53h-726l4 -41 q0 -172 125 -277q113 -95 267 -95q127 0 209 79q18 18 68 93h81v-281l-30 -13q-65 -30 -169.5 -51t-243.5 -21q-192 0 -327 50q-102 37 -179 114l-56 -48q-63 -53 -163.5 -83.5t-200.5 -30.5q-167 0 -274 95q-113 100 -113 265zM397 334q0 -84 55.5 -126.5t136.5 -42.5 q72 0 139 48q58 40 82 89l20 39v244l-64 -10q-181 -32 -249 -65q-120 -58 -120 -176zM1100 740h417q0 88 -54.5 151.5t-138.5 63.5q-93 0 -158.5 -60t-65.5 -155z" />
<glyph unicode="&#xe7;" horiz-adv-x="1137" d="M72 568q0 234 135 390q156 181 443 181q97 0 203 -37q127 -44 212 -128l23 -23l-188 -234l-76 49l9 37q4 21 4 29q0 56 -49.5 88.5t-121.5 32.5q-141 0 -221 -121q-70 -107 -71 -262q0 -204 122 -317q102 -95 246 -95q121 0 169 69q12 23 26 47h91v-274l-40 -16 q-18 -7 -72.5 -15.5t-99.5 -8.5h-21q-44 0 -76 3.5t-56 6.5l-55 -100l46 -2q97 0 158 -46q72 -53 72 -149q0 -90 -77 -144q-70 -49 -169 -49q-114 0 -193 37q-95 44 -95 123q0 32 26.5 54.5t61.5 22.5q76 0 104 -67t80 -67q44 0 68 25.5t24 69.5q0 56 -54 82t-127 26l-51 -4 l-41 53l79 169l-49 15q-65 21 -137 71q-113 76 -176 175q-86 134 -86 303z" />
<glyph unicode="&#xe8;" d="M69 563q0 241 150 408.5t377 167.5q218 0 355 -156q132 -149 132 -366v-53h-726l3 -35q0 -171 125 -274q113 -93 267 -93q127 0 210 79q18 18 68 93h81v-281l-30 -13q-65 -30 -169.5 -51t-243.5 -21q-251 0 -425 170.5t-174 424.5zM362 730h417q0 88 -54.5 156.5 t-139.5 68.5q-91 0 -157 -64.5t-66 -160.5zM366 1512q0 33 21 63q33 44 91 44q40 0 78 -28q118 -93 217 -179q116 -100 120 -111l-28 -60q-9 -2 -144.5 47.5t-270.5 103.5q-84 33 -84 120z" />
<glyph unicode="&#xe9;" d="M69 563q0 241 150 408.5t377 167.5q218 0 355 -156q132 -149 132 -366v-53h-726l3 -35q0 -171 125 -274q113 -93 267 -93q127 0 210 79q18 18 68 93h81v-281l-30 -13q-65 -30 -169.5 -51t-243.5 -21q-251 0 -425 170.5t-174 424.5zM362 730h417q0 88 -54.5 156.5 t-139.5 68.5q-91 0 -157 -64.5t-66 -160.5zM374 1301q4 11 115.5 106.5t224.5 183.5q35 28 79 28q56 0 89 -44q21 -30 22 -63q0 -37 -23 -70.5t-64 -49.5q-107 -44 -267 -102q-141 -51 -146 -49z" />
<glyph unicode="&#xea;" d="M69 563q0 241 150 408.5t377 167.5q218 0 355 -156q132 -149 132 -366v-53h-726l3 -35q0 -171 125 -274q113 -93 267 -93q127 0 210 79q18 18 68 93h81v-281l-30 -13q-65 -30 -169.5 -51t-243.5 -21q-251 0 -425 170.5t-174 424.5zM248 1299l351 236l357 -236l-33 -51 l-320 118l-326 -121zM362 730h417q0 88 -54.5 156.5t-139.5 68.5q-91 0 -157 -64.5t-66 -160.5z" />
<glyph unicode="&#xeb;" d="M69 563q0 241 150 408.5t377 167.5q218 0 355 -156q132 -149 132 -366v-53h-726l3 -35q0 -171 125 -274q113 -93 267 -93q127 0 210 79q18 18 68 93h81v-281l-30 -13q-65 -30 -169.5 -51t-243.5 -21q-251 0 -425 170.5t-174 424.5zM255 1380q0 56 37.5 99t104.5 43 q69 0 105.5 -41t36.5 -101t-36.5 -101.5t-105.5 -41.5t-105.5 41.5t-36.5 101.5zM362 730h417q0 88 -54.5 156.5t-139.5 68.5q-91 0 -157 -64.5t-66 -160.5zM657 1380q0 56 38 99t104 43q69 0 106 -41t37 -101t-37 -101.5t-106 -41.5t-105.5 41.5t-36.5 101.5z" />
<glyph unicode="&#xec;" horiz-adv-x="588" d="M-21 1512q0 33 21 63q33 44 91 44q40 0 78 -28q118 -93 218 -179q115 -100 119 -111l-28 -60q-9 -2 -144 47.5t-271 103.5q-84 33 -84 120zM65 1021v81h371v-917q0 -33 2.5 -48.5t15.5 -29.5q7 -9 18 -15t38 -9l17 -4v-79h-455v79l16 4q12 2 29 5t30 19t16.5 33.5 t3.5 44.5v741q0 39 -37 71q-33 25 -65 24z" />
<glyph unicode="&#xed;" horiz-adv-x="599" d="M-2 1301q4 11 115.5 106.5t224.5 183.5q35 28 79 28q56 0 89 -44q21 -30 21 -63q0 -37 -22.5 -70.5t-63.5 -49.5q-107 -44 -267 -102q-141 -51 -146 -49zM67 1021v81h371v-917q0 -32 2.5 -48t13 -29t23.5 -17.5t35 -7.5l17 -4v-79h-455v79l16 4q12 2 28.5 5t30 19 t17 33.5t3.5 44.5v741q0 39 -37 71q-33 25 -65 24z" />
<glyph unicode="&#xee;" horiz-adv-x="590" d="M-84 1299l351 236l357 -236l-33 -51l-320 118l-325 -121zM72 1021v81h371v-917q0 -30 2.5 -47.5t13.5 -30.5q18 -19 58 -24l16 -4v-79h-456v79l16 4q25 4 37 8t24.5 18t16 31.5t3.5 44.5v741q0 21 -10.5 38t-28.5 33q-9 7 -29 15.5t-34 8.5z" />
<glyph unicode="&#xef;" horiz-adv-x="587" d="M-67 1380q0 56 38 99t105 43q69 0 105.5 -41t36.5 -101t-36.5 -101t-105.5 -41t-106 41t-37 101zM83 1021v81h371v-917q0 -30 2.5 -47.5t12.5 -30.5q18 -19 58 -24l16 -4v-79h-455v79l17 4q12 2 29 5t30.5 19t17 33.5t3.5 44.5v741q0 40 -39 71q-9 7 -29 15.5t-34 8.5z M336 1380q0 56 37.5 99t104.5 43q69 0 106 -41t37 -101t-37 -101t-106 -41t-105.5 41t-36.5 101z" />
<glyph unicode="&#xf1;" horiz-adv-x="1293" d="M62 1023v81h344v-114q46 56 157.5 103.5t227.5 47.5q178 0 271 -118q88 -113 88 -308v-530q0 -23 0.5 -43.5t12 -33.5t24.5 -18q9 -4 31 -7l16 -4v-79h-452v79l30 4q11 2 18 7q4 4 17 17.5t14.5 39t1.5 38.5v530q0 100 -42 157q-51 67 -155 67q-74 0 -123 -27 q-33 -18 -81 -66l-42 -48v-613v-23q0 -16 1 -30t10 -25q18 -19 58 -24l16 -4v-79h-442v79l18 4q30 5 44 21.5t14 57.5v23v694q0 58 -3.5 81.5t-26.5 45.5q-9 9 -23 12t-24 5zM306 1308q47 60 106 97q72 46 147 45q44 0 146 -37q47 -18 83 -17q19 0 40 3.5t44 17.5q7 5 44 33 l53 -49q-44 -60 -105 -102q-77 -53 -159 -53h-16q-37 0 -137 36q-51 18 -86 17q-32 0 -56 -10q-9 -4 -53 -30z" />
<glyph unicode="&#xf2;" horiz-adv-x="1304" d="M56 526q0 260 162 432q169 181 439 181q241 0 407.5 -166t166.5 -419q0 -246 -155 -417q-162 -178 -411 -177q-260 0 -434.5 165t-174.5 401zM357 1512q0 33 21 63q33 44 91 44q40 0 78 -28q118 -93 218 -179q115 -100 119 -111l-28 -60q-9 -2 -144 47.5t-271 103.5 q-84 33 -84 120zM360 571q0 -178 58 -281q76 -134 241 -134q141 0 211 116q62 101 62 252q0 169 -62 285q-74 139 -216 139q-135 0 -206 -69q-88 -86 -88 -308z" />
<glyph unicode="&#xf3;" horiz-adv-x="1311" d="M58 517q0 260 162 432q169 181 439 181q241 0 407 -166t166 -419q0 -246 -154 -417q-162 -178 -412 -177q-260 0 -434 165t-174 401zM362 563q0 -178 58 -282q76 -134 241 -133q141 0 211 116q61 100 61 251q0 169 -61 285q-74 139 -216 139q-135 0 -206 -69 q-88 -86 -88 -307zM401 1292q4 11 115.5 106.5t223.5 183.5q35 28 79 28q57 0 90 -44q21 -30 21 -63q0 -37 -23 -70.5t-63 -49.5q-107 -44 -267 -101q-141 -51 -146 -50z" />
<glyph unicode="&#xf4;" horiz-adv-x="1304" d="M56 526q0 260 162 432q169 181 439 181q241 0 407.5 -166t166.5 -419q0 -246 -155 -417q-162 -178 -411 -177q-260 0 -434.5 165t-174.5 401zM289 1299l351 236l357 -236l-33 -51l-320 118l-326 -121zM360 571q0 -178 58 -281q76 -134 241 -134q141 0 211 116 q62 101 62 252q0 169 -62 285q-74 139 -216 139q-135 0 -206 -69q-88 -86 -88 -308z" />
<glyph unicode="&#xf5;" horiz-adv-x="1311" d="M52 526q0 260 162 432q169 181 439 181q241 0 407.5 -166t166.5 -419q0 -246 -155 -417q-162 -178 -411 -177q-260 0 -434.5 165t-174.5 401zM311 1301q47 60 106 97q72 46 147 45q44 0 146 -37q47 -18 83 -17q19 0 40 3.5t44 17.5q7 5 44 33l53 -49q-44 -60 -105 -102 q-77 -53 -159 -53h-16q-37 0 -137 36q-51 18 -86 17q-32 0 -56 -10q-9 -4 -53 -30zM356 571q0 -178 58 -281q76 -134 241 -134q141 0 211 116q62 101 62 252q0 169 -62 285q-74 139 -216 139q-135 0 -206 -69q-88 -86 -88 -308z" />
<glyph unicode="&#xf6;" horiz-adv-x="1309" d="M52 526q0 260 162 432q169 181 439 181q241 0 407.5 -166t166.5 -419q0 -246 -155 -417q-162 -178 -411 -177q-260 0 -434.5 165t-174.5 401zM336 1380q0 56 37.5 99t104.5 43q69 0 105.5 -41t36.5 -101t-36.5 -101.5t-105.5 -41.5t-105.5 41.5t-36.5 101.5zM356 571 q0 -178 58 -281q76 -134 241 -134q141 0 211 116q62 101 62 252q0 169 -62 285q-74 139 -216 139q-135 0 -206 -69q-88 -86 -88 -308zM738 1380q0 56 38 99t104 43q69 0 106 -41t37 -101t-37 -101.5t-106 -41.5t-105.5 41.5t-36.5 101.5z" />
<glyph unicode="&#xf7;" horiz-adv-x="1439" d="M58 464l2 148h1309v-148h-1311zM563 195q0 56 36.5 98.5t101.5 42.5t106 -44q35 -39 35 -97q0 -54 -37 -96.5t-104 -42.5q-65 0 -101.5 41.5t-36.5 97.5zM563 881q0 56 36.5 98t101.5 42q67 0 104 -42t37 -98t-36 -97.5t-105 -41.5q-65 0 -101.5 41t-36.5 98z" />
<glyph unicode="&#xf8;" horiz-adv-x="1313" d="M77 526q0 260 162 432q169 181 440 181q97 0 188 -32.5t165 -90.5l76 84h159l-149 -168q65 -77 99.5 -171.5t34.5 -206.5q0 -246 -155 -417q-162 -178 -411 -177q-204 0 -347 93l-54 -64h-162l123 139q-79 81 -124 183t-45 215zM381 571q0 -86 7.5 -139.5t29.5 -109.5 l457 518q-33 49 -84 78.5t-116 29.5q-135 0 -206 -69q-88 -86 -88 -308zM489 220q69 -63 191 -64q141 0 211 116q62 101 62 252q0 58 -4.5 104.5t-16.5 92.5z" />
<glyph unicode="&#xf9;" horiz-adv-x="1334" d="M44 1023v81h367v-740q0 -86 46 -137q53 -58 151 -58q88 0 169 56q93 65 93 156v551q0 30 -4.5 46.5t-19 29.5t-37.5 15t-36 0v81h387v-919q0 -30 3 -47.5t13 -30.5q18 -19 49 -24l18 -4v-79h-359v121l-37 -28q-88 -67 -162.5 -96.5t-172.5 -29.5q-183 0 -287 103 q-97 97 -97 250v612v23q0 37 -15 51t-36 16.5t-33 0.5zM376 1512q0 33 21 63q33 44 92 44q40 0 77 -28q118 -93 218 -179q116 -100 120 -111l-29 -60q-9 -2 -144 47.5t-270 103.5q-84 33 -85 120z" />
<glyph unicode="&#xfa;" horiz-adv-x="1320" d="M65 1023v81h367v-740q0 -86 46 -137q53 -58 151 -58q88 0 169 56q93 65 93 156v551q0 30 -4.5 46.5t-19 29.5t-37.5 15t-35 0v81h386v-919q0 -30 3 -47.5t13 -30.5q18 -19 49 -24l18 -4v-79h-359v121l-37 -28q-88 -67 -162.5 -96.5t-172.5 -29.5q-183 0 -287 103 q-97 97 -97 250v612v23q0 37 -14.5 51t-36 16.5t-33.5 0.5zM406 1299q2 9 118 107q107 91 216 180q37 26 79 26q56 0 88 -44q21 -30 21 -63q0 -83 -84 -116q-102 -42 -266 -102q-137 -51 -144 -49z" />
<glyph unicode="&#xfb;" horiz-adv-x="1320" d="M44 1023v81h368v-740q0 -86 45 -137q53 -58 152 -58q88 0 168 56q93 65 94 156v551q0 30 -4.5 46.5t-19.5 29.5t-38 15t-35 0v81h387v-919q0 -30 2.5 -47.5t12.5 -30.5q18 -19 50 -24l17 -4v-79h-358v121l-37 -28q-88 -67 -163 -96.5t-173 -29.5q-183 0 -287 103 q-97 97 -96 250v612v23q0 37 -15 51t-36 16.5t-34 0.5zM287 1299l351 236l357 -236l-33 -51l-320 118l-326 -121z" />
<glyph unicode="&#xfc;" horiz-adv-x="1325" d="M44 1023v81h368v-740q0 -86 45 -137q53 -58 152 -58q88 0 168 56q93 65 94 156v551q0 30 -4.5 46.5t-19.5 29.5t-38 15t-35 0v81h387v-919q0 -30 2.5 -47.5t12.5 -30.5q18 -19 50 -24l17 -4v-79h-358v121l-37 -28q-88 -67 -163 -96.5t-173 -29.5q-183 0 -287 103 q-97 97 -96 250v612v23q0 37 -15 51t-36 16.5t-34 0.5zM340 1380q0 56 37.5 99t104.5 43q69 0 105.5 -41t36.5 -101t-36.5 -101.5t-105.5 -41.5t-105.5 41.5t-36.5 101.5zM742 1380q0 56 38 99t104 43q69 0 106 -41t37 -101t-37 -101.5t-106 -41.5t-105.5 41.5t-36.5 101.5z " />
<glyph unicode="&#xfd;" horiz-adv-x="0" />
<glyph unicode="&#xff;" horiz-adv-x="1299" d="M49 1023v81h454v-81h-16q-16 0 -35 -19q-7 -12 -7 -30q0 -23 10 -48l243 -590l209 571q11 25 11 55q0 28 -14 42q-2 2 -17 10.5t-29 8.5l-5 81h360v-81l-16 -2q-14 -2 -24 -10q-7 -5 -19.5 -19.5t-20.5 -42.5t-11 -35l-350 -923q-91 -246 -176 -339q-114 -128 -316 -128 q-74 0 -115.5 7t-106.5 35v290h90l14 -30q46 -100 146 -100q95 0 172 102q72 95 58 153l-7 28l-378 889q-7 19 -16 37q-14 32 -26.5 48t-15.5 21q-12 14 -30 17zM440 1389q0 56 37.5 99t104.5 43q69 0 105.5 -41t36.5 -101t-36.5 -101.5t-105.5 -41.5t-105.5 41.5 t-36.5 101.5zM842 1389q0 56 38 99t104 43q69 0 106 -41t37 -101t-37 -101.5t-106 -41.5t-105.5 41.5t-36.5 101.5z" />
<glyph unicode="&#x152;" horiz-adv-x="2626" d="M74 805q0 350 228 575q237 234 630 234q62 0 163 -18q33 -5 90 -17h1273v-299h-102q-7 46 -36 81q-19 23 -46 29t-89 6h-77h-517v-408h457q39 0 68.5 10.5t55 32.5t32.5 64h101v-390h-92q-5 23 -10.5 34.5t-18.5 24.5l-27 27q-28 16 -109 16h-457v-614l643 -1 q46 0 77 10.5t63.5 42t47.5 80.5h109v-325h-1344q-65 -14 -104 -19q-120 -19 -192 -20q-367 0 -596 248q-222 239 -221 596zM403 798q0 -267 124 -436q144 -195 413 -195q158 0 261 79q81 62 81 116v816q0 111 -76 167q-90 67 -273 67q-253 0 -399 -188q-132 -171 -131 -426 z" />
<glyph unicode="&#x153;" horiz-adv-x="2063" d="M83 526q0 260 161 432q169 181 440 181q121 0 230 -48.5t188 -134.5q72 97 176 150.5t230 53.5q218 0 355 -156q132 -149 132 -366v-53h-726l4 -35q0 -171 125 -274q113 -93 267 -93q127 0 209 79q18 18 69 93h80v-281l-29 -12q-65 -30 -170 -51.5t-244 -21.5 q-134 0 -248 50.5t-198 141.5q-77 -100 -191.5 -160.5t-251.5 -60.5q-260 0 -434 165t-174 401zM387 571q0 -178 58 -281q76 -134 241 -134q141 0 211 116q61 101 61 252q0 169 -61 285q-74 139 -217 139q-135 0 -205 -69q-88 -86 -88 -308zM1275 751h416q0 88 -54.5 156.5 t-138.5 68.5q-91 0 -157 -64.5t-66 -160.5z" />
<glyph unicode="&#x178;" horiz-adv-x="1562" d="M49 1487v90h529v-90h-12q-25 0 -39.5 -6t-20.5 -25q-4 -12 2.5 -32.5t20.5 -45.5l288 -513l268 513q12 23 12 53q0 19 -4 25q-9 19 -30 25t-50 6h-13v90h496v-90h-11q-37 0 -42 -2q-7 -4 -23 -19q-28 -32 -37 -42q-16 -23 -22 -35l-419 -756v-383q0 -56 3 -88t13 -41 q30 -32 74 -31h10v-90h-511v90h10q37 0 67 31q9 9 11 30t2 34q0 16 -1 31.5t-1 33.5v362l-419 722q-19 33 -46 74.5t-43 54t-21 15.5q-12 9 -27 9h-14zM468 1858q0 56 37.5 99t104.5 43q69 0 105.5 -41t36.5 -101t-36.5 -101.5t-105.5 -41.5t-105.5 41.5t-36.5 101.5z M870 1858q0 56 38 99t104 43q69 0 106 -41t37 -101t-37 -101.5t-106 -41.5t-105.5 41.5t-36.5 101.5z" />
<glyph unicode="&#x2000;" horiz-adv-x="1053" />
<glyph unicode="&#x2001;" horiz-adv-x="2106" />
<glyph unicode="&#x2002;" horiz-adv-x="1053" />
<glyph unicode="&#x2003;" horiz-adv-x="2106" />
<glyph unicode="&#x2004;" horiz-adv-x="702" />
<glyph unicode="&#x2005;" horiz-adv-x="526" />
<glyph unicode="&#x2006;" horiz-adv-x="351" />
<glyph unicode="&#x2007;" horiz-adv-x="351" />
<glyph unicode="&#x2008;" horiz-adv-x="263" />
<glyph unicode="&#x2009;" horiz-adv-x="421" />
<glyph unicode="&#x200a;" horiz-adv-x="117" />
<glyph unicode="&#x2010;" horiz-adv-x="562" d="M62 482v248h439v-248h-439z" />
<glyph unicode="&#x2011;" horiz-adv-x="562" d="M62 482v248h439v-248h-439z" />
<glyph unicode="&#x2012;" horiz-adv-x="562" d="M62 482v248h439v-248h-439z" />
<glyph unicode="&#x2013;" horiz-adv-x="951" d="M67 480l2 248h829v-248h-831z" />
<glyph unicode="&#x2014;" horiz-adv-x="1705" d="M67 480l2 248h1573v-248h-1575z" />
<glyph unicode="&#x2018;" horiz-adv-x="525" d="M72 1144q0 100 80 228.5t180 202.5l48 35l89 -65l-24 -21q-21 -21 -53.5 -58t-64.5 -83q-21 -32 -46 -73q-4 -7 -12 -23q7 -2 30.5 -3.5t50 -4.5t64.5 -52t38 -107q0 -70 -55.5 -122t-120.5 -52q-95 0 -149.5 56t-54.5 142z" />
<glyph unicode="&#x2019;" horiz-adv-x="525" d="M69 1011l24 21q25 23 55.5 59t60.5 82q21 32 46 73q4 7 12 23q-5 4 -24.5 5t-50 4.5t-68.5 51.5t-38 106q0 72 55.5 124t120.5 52q97 0 150.5 -57t53.5 -143q0 -100 -79 -227.5t-181 -201.5l-48 -37z" />
<glyph unicode="&#x201a;" horiz-adv-x="525" d="M69 -265l24 21q25 23 55.5 59t60.5 81q21 32 46 74q4 7 12 23q-5 4 -24.5 4.5t-50 4t-68.5 52t-38 106.5q0 72 55.5 124t120.5 52q97 0 150.5 -57.5t53.5 -143.5q0 -100 -79 -227.5t-181 -201.5l-48 -36z" />
<glyph unicode="&#x201c;" horiz-adv-x="1002" d="M72 1148q0 100 80 228.5t180 202.5l48 35l89 -65l-24 -21q-23 -19 -54.5 -56.5t-63.5 -82.5q-21 -32 -46 -76q-4 -7 -12 -23q5 -2 30 -1q19 0 35 -4q42 -11 80 -58t38 -104q0 -70 -55.5 -122t-120.5 -52q-95 0 -149.5 56.5t-54.5 142.5zM541 1148q0 100 80 228.5 t181 202.5l49 35l88 -65l-23 -21q-25 -19 -55.5 -55.5t-62.5 -83.5q-21 -32 -46 -76q-4 -7 -12 -23q2 -2 21.5 -1.5t53.5 -6t71 -54t37 -105.5q0 -70 -55.5 -122t-120.5 -52q-97 0 -151.5 56.5t-54.5 142.5z" />
<glyph unicode="&#x201d;" horiz-adv-x="987" d="M62 1014l24 21q25 21 55.5 57.5t60.5 81.5q21 32 46 76q4 7 12 23q-5 2 -21 2q-21 0 -52.5 4t-69.5 54t-38 107q0 70 55.5 122t120.5 52q95 0 149.5 -56.5t54.5 -142.5q0 -100 -80 -228.5t-180 -202.5l-48 -35zM531 1014l25 21q25 19 55.5 55.5t61.5 83.5q21 32 46 76 q4 7 12 23q-5 2 -21 2q-23 0 -52.5 4t-69.5 55t-40 106q0 70 55.5 122t120.5 52q97 0 151.5 -56.5t54.5 -142.5q0 -100 -80 -228.5t-180 -202.5l-49 -35z" />
<glyph unicode="&#x201e;" horiz-adv-x="987" d="M62 -262l24 21q25 21 55.5 57t60.5 82q21 32 46 76q4 7 12 22q-5 2 -21 2q-21 0 -52.5 4.5t-69.5 54.5t-38 106q0 70 55.5 122.5t120.5 52.5q95 0 149.5 -56.5t54.5 -142.5q0 -100 -80 -228.5t-180 -202.5l-48 -35zM531 -262l25 21q25 19 55.5 55.5t61.5 83.5 q21 32 46 76q4 7 12 22q-5 2 -21 2q-23 0 -52.5 4.5t-69.5 55.5t-40 105q0 70 55.5 122.5t120.5 52.5q97 0 151.5 -56.5t54.5 -142.5q0 -100 -80 -228.5t-180 -202.5l-49 -35z" />
<glyph unicode="&#x2022;" horiz-adv-x="541" d="M65 619q0 84 53 144q60 67 158 67q100 0 158 -65q53 -60 53 -146q0 -84 -53 -144q-60 -67 -158 -67q-100 0 -155.5 62.5t-55.5 148.5z" />
<glyph unicode="&#x2026;" horiz-adv-x="2661" d="M67 179q0 86 53.5 148t153.5 62q98 0 157 -66q53 -60 52 -144q0 -86 -51 -144q-58 -65 -158 -65q-97 0 -152 62.5t-55 146.5zM1076 179q0 86 53.5 148t153.5 62q98 0 157 -66q53 -60 52 -144q0 -86 -51 -144q-58 -65 -158 -65q-97 0 -152 62.5t-55 146.5zM2145 179 q0 86 53.5 148t153.5 62q98 0 157 -66q53 -60 52 -144q0 -86 -51 -144q-58 -65 -158 -65q-97 0 -152 62.5t-55 146.5z" />
<glyph unicode="&#x202f;" horiz-adv-x="421" />
<glyph unicode="&#x205f;" horiz-adv-x="526" />
<glyph unicode="&#x2122;" horiz-adv-x="1772" d="M65 1577h19l294 -5l290 5l19 2l-7 -180h-31l-9 71q-4 26 -12.5 36.5t-28.5 10.5l-172 4v-610q0 -28 11.5 -41.5t33.5 -16t29 -2.5l25 -2v-32h-16q-7 0 -60.5 3.5t-75.5 3.5q-28 0 -63 -2.5t-72 -4.5h-19v34l31 2q12 0 28 2.5t29.5 15.5t13.5 40v610l-169 -6 q-19 -4 -23 -7q-9 -9 -12 -30l-13 -79h-33zM728 817v34l31 2q12 0 28 2.5t28.5 15.5t12.5 40v569q0 32 -14 48q-5 7 -33.5 11t-40.5 4h-12v32h19l72 -3q23 0 63.5 1.5t43.5 1.5h11l285 -605l112 232q54 109 74 148q30 60 60 128l30 78l9 19h14l93 -5l86 5h14v-32h-16 q-21 0 -43 -2.5t-31 -12.5q-14 -19 -14 -48v-569q0 -26 14 -43q9 -11 32 -14t28 -3l26 -2v-32h-17q-26 2 -64 4.5t-70 2.5q-28 0 -63 -2.5t-72 -4.5h-19v34l29 2q14 0 29 2.5t26 12.5q18 18 18 43v531l-299 -635h-23l-297 631v-527q0 -26 14 -43q9 -11 31.5 -14t28.5 -3 l26 -2v-32h-16q-7 0 -60.5 3.5t-74.5 3.5q-19 0 -42 -2.5t-48 -4.5h-19z" />
<glyph unicode="&#x25fc;" horiz-adv-x="1107" d="M0 0v1108h1108v-1108h-1108z" />
</font>
</defs>
</svg>
